<svg xmlns="http://www.w3.org/2000/svg" viewBox="0 0 730.39 714.93"><defs><style>.cls-1{fill:#ffe7ab;}.cls-2{fill:#45ff9f;}.cls-3{fill:#ba4acc;}.cls-4{fill:#e6858a;}.cls-5{fill:#f7c432;}.cls-6{fill:#44989b;}.cls-7{fill:#418201;}.cls-8{fill:#5dc7e1;}.cls-9{fill:#b22d28;}.cls-10{fill:#7beb00;}.cls-11{fill:#bb6ea7;}.cls-12{fill:#f8a47f;}.cls-13{fill:none;}.cls-14{fill:#fff;}</style></defs><title>2Artboard 14 copy 11</title><g id="Layer_22" data-name="Layer 22"><path class="cls-1" d="M591.74,588.52c-19.17-42.94-38.26-86.76-56.73-129.14-9.23-21.19-18.78-43.1-28.22-64.63-2.75-6.27-5.48-12.68-8.12-18.89-7.79-18.3-15.84-37.23-25.4-54.8-8.14-15-21.38-36-42.35-45.75-11.86-5.53-25.16-6.24-37.75-6.16a386.61,386.61,0,0,0-41.44,2.13c-29.45,3.31-52.27,12.53-69.75,28.19-17.85,16-30.54,36-44.11,58.66-14.34,23.91-29.56,49.68-46.54,78.81-26.92,46.17-53.86,93.48-80.08,140.61l-3.37,6.06q2.71,3.08,5.49,6.09l1.28-2.82c25.79-56.82,52.69-107.25,82.24-154.17,16.27-25.82,32.17-48.91,48.62-70.58C259.23,344,278.05,321,302,303.45c23.38-17.17,49.34-26.79,75.06-27.83,25.48-1,49.77,7.54,70.29,24.74,37.57,31.51,50.42,78.31,62.85,123.57,1.93,7,3.93,14.29,6,21.27,15.35,52.64,38.24,106.34,68,159.61a43.71,43.71,0,0,1,4,9.16l.81,2.87q6.91-6,13.48-12.29L599.39,601C596.92,598.54,594.34,594.34,591.74,588.52Z"/><path class="cls-1" d="M77.81,544l1.51-2.5C112,487.58,146.45,430,177.63,370.82c2.6-4.94,5.26-10.08,7.82-15.06,21.71-42.1,44.16-85.63,86-110,26.4-15.39,55.67-18.59,88.43-20.94,28.68-2.06,61.19-4.39,90.44,9.28,26.81,12.53,46,36.2,62.88,57.08,10,12.38,19.7,24.6,28,38,7.36,12,13.77,25.71,20.15,43.3,8,22.12,15.42,44.86,22.57,66.86,3.09,9.52,6.29,19.36,9.49,29q5.32,16,10.67,32c7,21.07,14.3,42.86,21.33,64.34,1.06,3.25,2.85,9.19,3.51,11.33a341.18,341.18,0,0,0,78.8-218.59c0-189.2-153.38-342.58-342.58-342.58S22.61,168.26,22.61,357.46A341,341,0,0,0,77.81,544Z"/><path class="cls-1" d="M582.9,499.89Q577,482.3,571.19,464.71l-17.57-52.9q-1.39-4.19-2.76-8.39c-4.35-13.25-8.84-27-14.37-39.87-11.81-27.62-31.25-51.53-50.14-73.65-15.62-18.29-35.29-37.81-62.78-43.91-14.7-3.26-30.18-3.08-43.4-2.46-15.77.73-29.77,1.79-42.79,3.23-31.58,3.5-54.94,12.72-73.53,29-19.35,17-33.34,39.38-43.37,57-8,14.12-15.7,28.83-23.1,43.05-5.49,10.56-11.17,21.48-17,32.12-27.79,50.81-57.87,100.86-86.3,147.77l-3.77,6.22c1.28,1.72,2.58,3.41,3.9,5.1l1.5-2.69c30.44-54.64,61.82-109.47,93.26-163q5.08-8.64,10.12-17.34c11.46-19.72,23.3-40.11,36.16-59.42,23.09-34.67,41.8-48,53.87-55,26.7-15.48,58.17-18.78,82.6-19.92,24.68-1.16,55.41-2.59,80,14.53,21.55,15,34.74,37.95,43.83,56.25,9.27,18.66,17.59,38.12,25.64,56.94,3.21,7.51,6.53,15.27,9.85,22.85q13.08,29.84,26.09,59.71c17.09,39.18,34.75,79.69,52.43,119.39A41,41,0,0,1,613,591.78l.16,2.08c1.19-1.24,2.34-2.51,3.51-3.77-1.72-2.69-8.36-13.5-10.35-19.58C598.6,546.94,590.62,523,582.9,499.89Z"/><path class="cls-1" d="M566.82,614.75c-32.07-57.18-56.61-116-72.94-174.77q-1.54-5.55-3.08-11.22c-12-43.86-25.5-93.58-65.13-119.74-19-12.56-42.56-16.43-66.28-10.89-22.18,5.17-43.64,17.53-63.78,36.72-19.42,18.51-35.49,40.44-50.28,61.31-15.36,21.68-30.4,44.79-44.69,68.67-24.68,41.23-47.39,85-69.45,133.86l-2.84,6.3A344.42,344.42,0,0,0,161,632.52l2.43-3.78c17.51-27.29,30.16-58.16,42.39-88,6.84-16.71,13.92-34,21.79-50.5a726.89,726.89,0,0,1,37.79-70.1c15.71-25.41,30.77-43.43,47.39-56.72,20.41-16.31,42.86-25.8,64.94-27.46,22.58-1.69,45.09,5.19,61.72,18.89,19.33,15.92,26.54,39.84,31.46,63.32l.39,1.84c5.22,24.92,10.61,50.68,16.92,75.77a1457.39,1457.39,0,0,0,48,154l1.41,3.77c1.94-1.13,3.87-2.27,5.78-3.43-1.6-2.07-4.21-9.21-5.31-12.75-18.56-60.29-35.78-121-53.66-181.47-7.49-25.31-13.82-51.37-23-76.12-4.11-11-9.69-21.51-18.1-29.85-8-7.88-17.77-13.7-28-18.11-11.52-5-24.44-9.28-37.12-8.86s-24,6.62-34.23,13.52c-19.58,13.2-36.94,29.63-52.44,47.38-32.76,37.52-58.11,81.82-79.59,126.56-18,37.55-35.73,81-60.17,114.82q-3.87-3.1-7.64-6.3c29.9-41.11,48.8-95.19,72.43-139.83,23.49-44.38,51.07-88,87.54-122.95a278.78,278.78,0,0,1,27.21-22.92c9.76-7.21,20.12-14,31.78-17.69,23.51-7.45,51.21,2.5,71.41,14.94a82.67,82.67,0,0,1,25,23.23c6.87,10,11.24,21.45,14.9,32.91,8.46,26.48,15.86,53.33,23.74,80,16.57,56,32.53,112.25,49.71,168.1a86,86,0,0,1,2.38,11.22q14.15-9.09,27.31-19.5l-3-2.32A31.51,31.51,0,0,1,566.82,614.75Z"/><path class="cls-1" d="M493.76,662.62c-17.38-48.75-34.23-97.7-49.18-147.25q-9.81-32.52-18.79-65.28c-3-10.94-5.7-22-8.89-32.86-2.81-9.6-6.4-19.42-13.18-27-6.14-6.85-14.3-11.56-23.72-11-10.55.58-20.21,6.4-28.82,12.06-16,10.54-30.1,23.87-42.41,38.54-27.14,32.34-45.06,71.22-61,110-15.42,37.48-32.83,80-48.82,117.28,3.16,1.76,6.35,3.48,9.57,5.14l2.57-4.41c17.64-30.28,30.4-63.82,42.75-96.26q3.68-9.67,7.39-19.3c16.18-41.74,31.61-75.73,54.33-105.94a234.08,234.08,0,0,1,19.49-22.94l.7-.72c6.41-6.58,13.67-14,22.82-18,20.34-8.77,40.65,4.07,50.91,19.71,5.68,8.66,9,18.52,11.75,27.09,3.45,10.91,6.39,21.87,9.36,33.07,5.09,19.25,11.18,41.59,19,63.15,7.44,20.41,15.18,42.25,20.9,65.1,4.11,16.44,8,37.72,11.38,56.51,1.23,6.75,2.38,13.13,3.49,19l0,.12q7.16-2.68,14.16-5.66C497.95,671.55,494.74,665.38,493.76,662.62Z"/><path class="cls-1" d="M353.52,679.79l-5.59,19.82c3.41.17,6.83.27,10.27.34l-.81-3.64C355.83,689.32,354.56,683.93,353.52,679.79Z"/><path class="cls-1" d="M517.69,657.37a1467.16,1467.16,0,0,1-51.84-168.61c-3.15-13-5.91-26.25-8.59-39.08-2.39-11.45-4.86-23.28-7.58-34.83-6.16-26.13-15.94-41.74-31.73-50.64-17.34-9.77-37.54-11.18-58.41-4.08-18.21,6.19-36.36,18.58-51.11,34.87-16.36,18.07-28.64,39.18-39.82,59.26-12.49,22.43-24.05,45.77-34.35,69.36-4.37,10-8.61,20.32-12.71,30.3-11.92,29-24.24,59-41.58,86L177.34,644q6.38,4.19,13,8.11c9-20.91,20.06-46.7,28.65-67.68,9.89-24.14,19.27-48.49,29.82-72.35,17.06-38.62,38-76.41,68.49-106.1,14.07-13.68,31-27.67,49.76-34.17,19.28-6.68,37.52,1.25,48.67,17.7,6.14,9.07,9.46,19.82,12.3,30.29,3,11.09,5.92,22.21,9,33.29q9.69,35.08,20.35,69.88c14.11,46.09,29.93,91.62,46.08,137,.78,2.19,2.63,8.33,2.46,10q7.45-3.36,14.71-7.07l-2.25-4.12A10.84,10.84,0,0,1,517.69,657.37Z"/><path class="cls-1" d="M290.3,570c7.07-16.88,13.76-34.21,19.88-51.51,2.34-6.63,4.49-13.54,6.56-20.23,3.23-10.4,6.56-21.16,10.81-31.43,7.89-19,21.38-30.76,37-32.12,8.69-.75,17.32,1.94,24.95,7.81a53.83,53.83,0,0,1,15.59,20,118.19,118.19,0,0,1,5.47,14.5l-.74-2.79c-2.61-9.76-5.44-20.14-8.78-30.28-2.76-8.39-6.11-17-11.88-23.42-5.33-5.91-12.21-9.15-18.4-8.65-6.56.53-12.47,6.46-17.69,11.7l-1.51,1.51c-12.38,12.29-23.49,26.65-34,43.9-19.29,31.71-32.77,67.09-45.81,101.31-12.37,32.48-25.17,66.07-43,96.84l-2.15,3.72q5.7,2.52,11.5,4.85l2.73-4.84A969.93,969.93,0,0,0,290.3,570Z"/><path class="cls-1" d="M368.25,623.59c-.33-3.87-.58-7.85-.83-11.69-1-15.09-2-30.62-7.61-44.19-1.41,3.92-2.1,9-2.63,12.83-.26,1.89-.51,3.68-.8,5.24a398.44,398.44,0,0,1-10.1,40.93,408.77,408.77,0,0,1-27.15,67.08l-1.52,3q5,.69,10,1.24l7.91-28c.26-.93.51-2,.77-3,1.74-7.18,4.66-19.2,16.66-19.2h0c13.35,0,16.56,13.56,18.29,20.85l7.4,31.2c1.89-.07,3.78-.15,5.67-.25l-1.15-3.44A314.14,314.14,0,0,1,368.25,623.59Z"/><path class="cls-1" d="M462.22,663.5c-3.64-20.21-7.76-43.12-12.21-60.28-4.85-18.7-11.47-37.2-17.88-55.08q-2.24-6.25-4.46-12.52c-5.34-15.12-9.66-30.7-13.74-46,1.62,7,2.92,14,4.2,21q.62,3.34,1.24,6.65,1.26,6.68,2.5,13.36c2.67,14.36,5.43,29.2,8.64,43.67A932,932,0,0,0,461.1,681.14l1.68,4.78c1.15-.34,2.29-.67,3.43-1a5,5,0,0,1-.21-.72C464.8,677.85,463.55,670.88,462.22,663.5Z"/><path class="cls-1" d="M409.46,571.61c-2.48-11.64-4.68-23.51-6.8-35-1.13-6.12-2.3-12.44-3.5-18.64-2-10.44-3.83-18.88-5.71-26.56-1.95-7.94-4-16.15-7.84-23.19s-9.9-11.92-16.1-13c-4.73-.86-9.26.53-13.44,4.11-8.93,7.65-12.63,20.5-16.21,32.92-.9,3.13-1.83,6.36-2.82,9.4A995,995,0,0,1,259.1,679.21l-1.93,3.44q7.76,2.58,15.68,4.79c8.4-11.88,16.22-30.84,22-43.82q10.84-24.47,20.43-49.47c11.08-28.86,20.65-58.17,29.51-87.77,3-10.15,8.58-22.46,21.09-22.09,13.94.41,19.54,15,20.93,26.6,3.65,30.6,7.55,60.77,14.68,90.81,7.08,29.8,18.19,63.44,29.47,91.91q-5,1-10,1.76c-11.58-29.35-22.85-63.92-30-94.67a681.78,681.78,0,0,1-13.82-86.42c-.64-6.4-1.43-14.41-7.25-18.36-5-3.38-9.37-.64-12,4.1-3.09,5.52-4.33,12.1-6.13,18.1q-3,10-6.15,19.86-13.25,41.41-29.76,81.68-8.14,19.84-17,39.36c-4.08,9-10.54,22.63-15.87,31.07,4.61,1.14,9.25,2.2,13.94,3.14l3-5.76a386.74,386.74,0,0,0,29.68-74.91c3.44-12.32,5.94-25.1,8.36-37.46l1-5.32c3.17-16.08,10.35-25.36,21.35-27.59a10.23,10.23,0,0,1,10.77,4.38C384.37,566,385.9,589,387.39,611.31c.15,2.18.29,4.35.45,6.51a297.9,297.9,0,0,0,15.06,74.23l1.93,5.7a341.54,341.54,0,0,0,38.55-6.68L442,686.89C436.58,670.46,416.48,604.54,409.46,571.61Z"/><path class="cls-2" d="M604.13,500.38q-5.34-16-10.67-32c-3.2-9.64-6.4-19.48-9.49-29-7.15-22-14.54-44.74-22.57-66.86-6.39-17.59-12.79-31.34-20.15-43.3-8.29-13.45-18-25.67-28-38-16.91-20.88-36.07-44.55-62.88-57.08-29.25-13.67-61.76-11.33-90.44-9.28-32.76,2.35-62,5.55-88.43,20.94-41.88,24.41-64.33,67.94-86,110-2.56,5-5.22,10.12-7.82,15.06C146.45,430,112,487.58,79.33,541.48L77.81,544q6,9.19,12.5,18l3.77-6.22c28.43-46.91,58.51-97,86.3-147.77,5.82-10.64,11.5-21.56,17-32.12,7.4-14.22,15.05-28.93,23.1-43.05,10-17.61,24-40,43.37-57,18.59-16.32,42-25.55,73.53-29,13-1.44,27-2.5,42.79-3.23,13.21-.61,28.7-.8,43.4,2.46,27.48,6.1,47.16,25.62,62.78,43.91,18.89,22.12,38.33,46,50.14,73.65,5.53,12.92,10,26.62,14.37,39.87q1.38,4.2,2.76,8.39l17.57,52.9Q577,482.3,582.9,499.89c7.72,23.13,15.7,47,23.41,70.61,2,6.08,8.63,16.89,10.35,19.58q6.34-6.85,12.31-14c-.66-2.13-2.45-8.08-3.51-11.33C618.43,543.25,611.16,521.46,604.13,500.38Z"/><path class="cls-3" d="M609.51,579.4c-17.67-39.7-35.34-80.21-52.43-119.39q-13-29.86-26.09-59.71c-3.32-7.58-6.64-15.34-9.85-22.85-8-18.82-16.37-38.29-25.64-56.94-9.09-18.3-22.28-41.23-43.83-56.25-24.56-17.12-55.29-15.69-80-14.53-24.43,1.14-55.9,4.44-82.6,19.92-12.07,7-30.78,20.3-53.87,55-12.86,19.31-24.7,39.7-36.16,59.42q-5,8.69-10.12,17.34c-31.44,53.49-62.81,108.31-93.26,163L94.21,567q6.58,8.5,13.67,16.56l3.37-6.06c26.23-47.13,53.17-94.43,80.08-140.61,17-29.12,32.2-54.9,46.54-78.81,13.58-22.63,26.26-42.67,44.11-58.66,17.48-15.66,40.3-24.89,69.75-28.19a386.61,386.61,0,0,1,41.44-2.13c12.6-.07,25.89.63,37.75,6.16,21,9.78,34.21,30.79,42.35,45.75,9.56,17.57,17.61,36.5,25.4,54.8,2.64,6.2,5.37,12.62,8.12,18.89,9.44,21.53,19,43.44,28.22,64.63,18.47,42.38,37.56,86.2,56.73,129.14,2.6,5.82,5.17,10,7.65,12.47l3.09,3.56q5.45-5.24,10.68-10.7l-.16-2.08A41,41,0,0,0,609.51,579.4Z"/><path class="cls-4" d="M584.18,604.81c-29.78-53.27-52.66-107-68-159.61-2-7-4-14.24-6-21.27-12.43-45.26-25.29-92.07-62.85-123.57-20.51-17.21-44.81-25.77-70.29-24.74-25.73,1-51.68,10.65-75.06,27.83-24,17.59-42.77,40.6-56.49,58.68-16.45,21.67-32.35,44.76-48.62,70.58-29.55,46.92-56.46,97.35-82.24,154.17l-1.28,2.82q7.26,7.87,15,15.28l2.84-6.3c22.05-48.84,44.77-92.62,69.45-133.86,14.29-23.88,29.33-47,44.69-68.67,14.79-20.87,30.86-42.8,50.28-61.31,20.14-19.2,41.59-31.55,63.78-36.72,23.72-5.53,47.27-1.66,66.28,10.89,39.63,26.17,53.18,75.88,65.13,119.74q1.55,5.67,3.08,11.22c16.33,58.79,40.87,117.59,72.94,174.77a31.51,31.51,0,0,0,7.6,9.37l3,2.32q5.91-4.67,11.62-9.59l-.81-2.87A43.71,43.71,0,0,0,584.18,604.81Z"/><path class="cls-5" d="M498,466.62c-7.88-26.65-15.29-53.5-23.74-80-3.66-11.45-8-23-14.9-32.91a82.67,82.67,0,0,0-25-23.23C414.2,318.05,386.5,308.11,363,315.56c-11.66,3.69-22,10.48-31.78,17.69A278.78,278.78,0,0,0,304,356.17c-36.48,34.93-64,78.56-87.54,122.95-23.63,44.64-42.53,98.72-72.43,139.83q3.77,3.21,7.64,6.3c24.44-33.85,42.15-77.27,60.17-114.82,21.48-44.74,46.83-89,79.59-126.56,15.5-17.75,32.86-34.19,52.44-47.38,10.23-6.89,21.62-13.1,34.23-13.52s25.6,3.9,37.12,8.86c10.24,4.41,20.06,10.23,28,18.11,8.41,8.33,14,18.84,18.1,29.85,9.23,24.74,15.56,50.8,23,76.12,17.89,60.49,35.1,121.18,53.66,181.47,1.09,3.55,3.7,10.69,5.31,12.75q3.38-2.06,6.71-4.2a86,86,0,0,0-2.37-11.22C530.51,578.87,514.55,522.65,498,466.62Z"/><path class="cls-6" d="M488.17,495.77c-6.31-25.09-11.7-50.85-16.92-75.77l-.39-1.84c-4.92-23.48-12.13-47.4-31.46-63.32-16.63-13.7-39.14-20.58-61.72-18.89-22.08,1.65-44.53,11.15-64.94,27.46-16.62,13.29-31.68,31.31-47.39,56.72a726.89,726.89,0,0,0-37.79,70.1c-7.87,16.51-14.95,33.79-21.79,50.5-12.23,29.86-24.88,60.74-42.39,88L161,632.52q8,6,16.38,11.44l2.63-4.08c17.34-27,29.67-57,41.58-86,4.1-10,8.34-20.3,12.71-30.3,10.3-23.59,21.86-46.93,34.35-69.36,11.18-20.08,23.47-41.19,39.82-59.26,14.75-16.29,32.9-28.68,51.11-34.87,20.87-7.1,41.07-5.69,58.41,4.08,15.79,8.9,25.58,24.51,31.73,50.64,2.72,11.54,5.19,23.38,7.58,34.83,2.68,12.82,5.44,26.08,8.59,39.08a1467.16,1467.16,0,0,0,51.84,168.61,10.84,10.84,0,0,0,.63,1.37l2.25,4.12q8.65-4.41,17-9.3l-1.41-3.77A1457.39,1457.39,0,0,1,488.17,495.77Z"/><path class="cls-7" d="M503.4,660c-16.15-45.41-32-90.95-46.08-137q-10.65-34.8-20.35-69.88c-3.06-11.08-6-22.2-9-33.29-2.85-10.47-6.16-21.22-12.3-30.29C404.54,373,386.3,365.09,367,371.77c-18.77,6.5-35.7,20.49-49.76,34.17-30.53,29.69-51.43,67.48-68.49,106.1-10.54,23.86-19.93,48.22-29.82,72.35-8.59,21-19.63,46.76-28.65,67.68q4.29,2.55,8.65,5c16-37.3,33.4-79.81,48.82-117.28,15.94-38.75,33.86-77.63,61-110,12.31-14.67,26.38-28,42.41-38.54,8.6-5.66,18.27-11.48,28.82-12.06,9.42-.52,17.58,4.2,23.72,11,6.78,7.57,10.37,17.39,13.18,27,3.19,10.89,5.89,21.92,8.89,32.86q9,32.76,18.79,65.28c15,49.55,31.81,98.49,49.18,147.25,1,2.76,4.19,8.93,5.83,10q3.15-1.35,6.27-2.74C506,668.29,504.18,662.15,503.4,660Z"/><path class="cls-8" d="M481.91,659.25c-3.41-18.78-7.27-40.07-11.38-56.51-5.72-22.85-13.46-44.69-20.9-65.1-7.86-21.56-13.95-43.9-19-63.15-3-11.2-5.91-22.15-9.36-33.07-2.71-8.57-6.07-18.43-11.75-27.09-10.26-15.64-30.56-28.48-50.91-19.71-9.15,3.95-16.42,11.41-22.82,18l-.7.72a234.08,234.08,0,0,0-19.49,22.94c-22.72,30.21-38.15,64.2-54.33,105.94q-3.73,9.63-7.39,19.3c-12.34,32.44-25.11,66-42.75,96.26l-2.57,4.41q8.9,4.59,18.11,8.65l2.15-3.72c17.82-30.76,30.62-64.35,43-96.84,13-34.22,26.51-69.61,45.81-101.31,10.49-17.24,21.61-31.6,34-43.9l1.51-1.51c5.22-5.24,11.13-11.17,17.69-11.7,6.19-.5,13.07,2.73,18.4,8.65,5.76,6.4,9.11,15,11.88,23.42,3.34,10.13,6.17,20.51,8.78,30.28l.74,2.79c1.28,4.16,2.38,8.39,3.37,12.64,4.08,15.26,8.41,30.84,13.74,46q2.21,6.28,4.46,12.52c6.4,17.89,13,36.38,17.88,55.08,4.45,17.16,8.57,40.07,12.21,60.28,1.33,7.38,2.58,14.35,3.79,20.69a5,5,0,0,0,.21.72q9.73-3,19.21-6.57l0-.12C484.3,672.38,483.14,666,481.91,659.25Z"/><path class="cls-9" d="M430.51,574.33c-3.21-14.47-6-29.31-8.64-43.67q-1.24-6.68-2.5-13.36-.63-3.3-1.24-6.65c-1.28-7-2.58-14-4.2-21-1-4.25-2.08-8.48-3.37-12.64a118.19,118.19,0,0,0-5.47-14.5,53.83,53.83,0,0,0-15.59-20c-7.63-5.87-16.26-8.56-24.95-7.81-15.63,1.37-29.11,13.08-37,32.12-4.25,10.26-7.59,21-10.81,31.43-2.07,6.69-4.22,13.61-6.56,20.23-6.12,17.3-12.81,34.63-19.88,51.51a969.93,969.93,0,0,1-49.44,100.82l-2.73,4.84q9.38,3.75,19,7l1.93-3.44A995,995,0,0,0,337,501.63c1-3,1.92-6.28,2.82-9.4,3.58-12.42,7.28-25.27,16.21-32.92,4.19-3.58,8.71-5,13.44-4.11,6.2,1.13,12.22,6,16.1,13s5.89,15.25,7.84,23.19c1.88,7.68,3.7,16.12,5.71,26.56,1.2,6.2,2.37,12.53,3.5,18.64,2.12,11.47,4.31,23.34,6.8,35,7,32.93,27.12,98.85,32.54,115.29l1.38,4.18q9.82-2.29,19.4-5.16l-1.68-4.78A932,932,0,0,1,430.51,574.33Z"/><path class="cls-10" d="M315.82,619.65q16.5-40.23,29.76-81.68,3.17-9.9,6.15-19.86c1.79-6,3-12.58,6.13-18.1,2.65-4.74,7-7.48,12-4.1,5.83,4,6.62,12,7.25,18.36A681.78,681.78,0,0,0,391,600.7c7.11,30.75,18.38,65.32,30,94.67q5-.81,10-1.76c-11.28-28.47-22.39-62.11-29.47-91.91-7.13-30-11-60.21-14.68-90.81-1.39-11.61-7-26.19-20.93-26.6-12.51-.36-18.06,11.94-21.09,22.09-8.86,29.61-18.42,58.92-29.51,87.77q-9.6,25-20.43,49.47c-5.75,13-13.57,31.94-22,43.82q5,1.4,10.09,2.64c5.32-8.44,11.78-22.1,15.87-31.07Q307.69,639.5,315.82,619.65Z"/><path class="cls-11" d="M387.84,617.82c-.16-2.16-.3-4.33-.45-6.51-1.49-22.26-3-45.27-16.3-64.74a10.23,10.23,0,0,0-10.77-4.38c-11,2.23-18.18,11.52-21.35,27.59l-1,5.32c-2.42,12.36-4.92,25.14-8.36,37.46a386.74,386.74,0,0,1-29.68,74.91l-3,5.76q10.26,2.08,20.74,3.52l1.52-3a408.77,408.77,0,0,0,27.15-67.08,398.44,398.44,0,0,0,10.1-40.93c.3-1.56.54-3.35.8-5.24.53-3.84,1.23-8.91,2.63-12.83,5.64,13.58,6.64,29.1,7.61,44.19.25,3.84.5,7.82.83,11.69a314.14,314.14,0,0,0,14.91,72.48l1.15,3.44q10.35-.57,20.52-1.76l-1.93-5.7A297.9,297.9,0,0,1,387.84,617.82Z"/><path class="cls-12" d="M353,647.7h0c-12,0-14.92,12-16.66,19.2-.26,1.08-.51,2.1-.77,3l-7.91,28c6.72.73,13.49,1.29,20.32,1.63l5.59-19.82c1,4.14,2.31,9.53,3.87,16.52l.81,3.64c2.33,0,4.66.09,7,.09,4.51,0,9-.11,13.45-.29l-7.4-31.2C369.52,661.27,366.31,647.7,353,647.7Z"/><path class="cls-13" d="M470,673.37c-4.54-23.91-9.09-47.84-15.2-71.41-6-23.21-14.5-45.44-22.46-68-7.06-20-12.26-40.54-17.74-61-2.74-10.24-5.54-20.48-8.86-30.55-2.94-8.93-6.53-18.12-12.91-25.21-5.61-6.23-13.89-11-22.52-10.28-9.13.73-16.2,8.57-22.32,14.64a234.81,234.81,0,0,0-34.73,44.84c-37.86,62.21-52.46,135.41-88.85,198.24q10.2,4.68,20.76,8.69A970.73,970.73,0,0,0,294.91,572q10.73-25.59,20-51.77c6-17,10.39-34.78,17.28-51.42,5.81-14,16.61-27.64,32.82-29.06S394.29,451,400.55,464.6c7.64,16.64,10.52,35.76,13.9,53.63,3.61,19.09,7,38.21,11.17,57.18A933.21,933.21,0,0,0,456.38,682.8q9.63-2.69,19-5.94A4.24,4.24,0,0,1,470,673.37Z"/><path class="cls-13" d="M404.08,517c-1.73-9-3.59-17.92-5.76-26.8-2-8.33-4.15-16.85-8.32-24.41-7.68-13.92-23.68-21.87-37.18-10.32-12.55,10.75-15.65,29.61-20.54,44.57a988.44,988.44,0,0,1-77.55,176.69q10,3.47,20.35,6.32c8.52-11.84,13.92-26.33,19.74-39.47q10.84-24.47,20.43-49.47c11.08-28.86,20.65-58.17,29.51-87.77,3-10.15,8.58-22.46,21.09-22.09,13.94.41,19.54,15,20.93,26.6,3.65,30.6,7.55,60.77,14.68,90.81a637.19,637.19,0,0,0,27.64,87.5q8.91-1.71,17.65-3.87c-5.88-17.81-25.61-82.91-32.4-114.76C410.56,552.79,407.52,534.88,404.08,517Z"/><path class="cls-13" d="M493.76,662.62c-17.38-48.75-34.23-97.7-49.18-147.25q-9.81-32.52-18.79-65.28c-3-10.94-5.7-22-8.89-32.86-2.81-9.6-6.4-19.42-13.18-27-6.14-6.85-14.3-11.56-23.72-11-10.55.58-20.21,6.4-28.82,12.06-16,10.54-30.1,23.87-42.41,38.54-27.14,32.34-45.06,71.22-61,110C232.26,577.46,217,615.24,201,652.69q7.12,4,14.45,7.6c21.31-36.59,35.21-76.87,50.48-116.27,14.18-36.57,30-73.21,53.66-104.74a230.88,230.88,0,0,1,19.08-22.45c6.4-6.57,13.37-13.92,21.92-17.61,17.19-7.41,35.33,3.5,44.75,17.86,5.16,7.87,8.34,16.94,11.16,25.86,3.43,10.85,6.38,21.84,9.29,32.84,5.68,21.46,11.57,42.72,19.18,63.58,7.77,21.32,15.23,42.56,20.75,64.6s9.77,44.42,14,66.76a5.08,5.08,0,0,1-2.83,5.63q10.7-3.75,21.06-8.17A10,10,0,0,1,493.76,662.62Z"/><path class="cls-13" d="M360.63,558.1c-7.38,4.81-7.77,19.4-9.17,26.74a392.05,392.05,0,0,1-10,40.41,402.82,402.82,0,0,1-26.82,66.25q9.57,1.43,19.31,2.31l6.35-22.51c1.93-6.85,3.2-18.59,12.63-18.6s11.72,9.78,13.43,17l6,25.46q7.79-.16,15.49-.69a308.7,308.7,0,0,1-14.68-71.32C371.38,601.22,372,577.6,360.63,558.1Z"/><path class="cls-13" d="M353,663c-.61.18-2.21,8.11-2.49,9.11l-3.14,11.13-3.2,11.36q9,.55,18.11.63C359.63,683.37,354.8,662.47,353,663Z"/><path class="cls-13" d="M377.13,514.27c-.64-6.4-1.43-14.41-7.25-18.36-5-3.38-9.37-.64-12,4.1-3.09,5.52-4.33,12.1-6.13,18.1q-3,10-6.15,19.86-13.25,41.41-29.76,81.68-8.14,19.84-17,39.36c-4.15,9.12-8.22,18.29-13.6,26.69q9.45,2.3,19.11,4.07a390.92,390.92,0,0,0,30.07-75.88c4-14.25,6.63-28.66,9.49-43.15,2-9.91,6.36-21.41,17.44-23.66a5.23,5.23,0,0,1,5.65,2.3c13.78,20.21,14.19,45.28,15.89,68.79a302.39,302.39,0,0,0,15.31,75.48q10.57-1,20.93-2.69A637.6,637.6,0,0,1,391,600.7,681.78,681.78,0,0,1,377.13,514.27Z"/><path class="cls-13" d="M596.31,586.48c-28.74-64.39-56.63-129.16-84.94-193.74-10.86-24.76-20.77-50.29-33.7-74.07-10.5-19.29-24.17-38.35-44.62-47.89-12.46-5.81-26.34-6.7-39.9-6.63a396.08,396.08,0,0,0-42,2.16c-26.65,3-52.28,11.29-72.53,29.44-18.75,16.8-32.22,38.4-45.06,59.81Q210,394.83,187,434.42q-40.77,69.94-80.13,140.69,6,7.08,12.32,13.83c24-52.87,51-104.42,81.92-153.57,15.15-24,31.19-47.58,48.37-70.23,16.19-21.33,33.78-41.74,55.47-57.67,21-15.39,46.13-25.81,72.3-26.86,24.75-1,48,7.76,66.88,23.58,42.27,35.46,52.57,92.19,67.22,142.41,16.35,56.06,40,109.68,68.45,160.64a38.67,38.67,0,0,1,3.55,8.08q10.11-8.57,19.54-17.89C601.07,595.62,598.82,592.12,596.31,586.48Z"/><path class="cls-13" d="M611.07,568.94c-11.56-35.32-23.42-70.54-35.14-105.8l-17.57-52.9c-5.42-16.31-10.51-32.83-17.28-48.65-12-28-31.29-51.93-50.94-74.93-17.77-20.81-38-39.45-65.5-45.54-14.64-3.25-29.8-3.27-44.71-2.58-14.38.66-28.81,1.67-43.11,3.25-28.17,3.12-54.68,11.29-76.28,30.26-18.51,16.25-32.31,37-44.42,58.27C202.07,355,189.64,380.62,176,405.55c-27.34,50-56.67,98.86-86.19,147.58q5,7,10.27,13.67,45.66-82,93.2-162.85c15.07-25.63,29.64-51.77,46.13-76.53,13.86-20.82,30.3-40.72,52.21-53.43,24.28-14.08,52.74-18,80.33-19.25,26.41-1.24,54.23-2.16,76.88,13.64,19.17,13.36,32,33.78,42.21,54.37,12.89,26,23.75,53,35.38,79.57,26.18,59.71,52,119.56,78.53,179.12A36.12,36.12,0,0,1,608,592.26q5.09-5.27,10-10.75C615.79,579.68,613.23,575.53,611.07,568.94Z"/><path class="cls-13" d="M571.18,612.3c-30.79-54.89-55.64-113-72.48-173.66-13.36-48.1-25.64-104.33-70.27-133.8-20.92-13.81-45.91-17.25-70.17-11.59-25.34,5.91-47.43,20.18-66.09,38-19.4,18.5-35.45,40.23-50.9,62q-23.8,33.59-44.91,69a1315.65,1315.65,0,0,0-69.71,134.37q9.63,9.6,20,18.41c29.9-41.11,46.16-91.28,69.79-135.92,23.49-44.38,51.07-88,87.54-122.95a278.78,278.78,0,0,1,27.21-22.92c9.76-7.21,20.12-14,31.78-17.69,23.51-7.45,51.21,2.5,71.41,14.94a82.67,82.67,0,0,1,25,23.23c6.87,10,11.24,21.45,14.9,32.91,8.46,26.48,15.86,53.33,23.74,80,16.57,56,32.53,112.25,49.71,168.1a20.93,20.93,0,0,1,1,6.36,338.72,338.72,0,0,0,28.77-20.89A26.55,26.55,0,0,1,571.18,612.3Z"/><path class="cls-13" d="M538,637.37c-18.56-60.29-35.78-121-53.66-181.47-7.49-25.31-13.82-51.37-23-76.12-4.11-11-9.69-21.51-18.1-29.85-8-7.88-17.77-13.7-28-18.11-11.52-5-24.44-9.28-37.12-8.86s-24,6.62-34.23,13.52c-19.58,13.2-36.94,29.63-52.44,47.38-32.76,37.52-58.11,81.82-79.59,126.56-18,37.55-33.09,77.06-57.53,110.91q6.51,5.21,13.28,10.1c27.6-43,42.6-93.13,64.49-139.07a726,726,0,0,1,37.53-69.62c12.66-20.48,27.33-40.31,46.26-55.44C333.74,353,355,342.66,378.07,340.93c20.69-1.55,42.08,4.51,58.17,17.77,18.2,15,25.09,38.29,29.74,60.49,5.45,26,10.86,52,17.35,77.81a1456.94,1456.94,0,0,0,48.17,154.55q5.48-3.1,10.83-6.41C540.76,643.7,539.22,641.16,538,637.37Z"/><path class="cls-13" d="M470.7,487.59c-5.94-24.51-10.38-49.34-16.17-73.88-5.12-21.71-13.86-42.42-34.14-53.85-40.72-22.95-87.32.46-115.68,31.79-16.28,18-28.73,39.08-40.48,60.18q-19,34-34.57,69.79c-17,38.92-30.86,79.73-53.91,115.56q8.11,5.5,16.56,10.53,13.6-31.54,26.63-63.31c9.89-24.14,19.27-48.49,29.82-72.35,17.06-38.62,38-76.41,68.49-106.1,14.07-13.68,31-27.67,49.76-34.17,19.28-6.68,37.52,1.25,48.67,17.7,6.14,9.07,9.46,19.82,12.3,30.29,3,11.09,5.92,22.21,9,33.29q9.69,35.08,20.35,69.88c14.11,46.09,29.93,91.62,46.08,137a10.62,10.62,0,0,1,.67,5.52q9.48-4.28,18.64-9.14a5.77,5.77,0,0,1-.34-.74A1456.68,1456.68,0,0,1,470.7,487.59Z"/><path class="cls-13" d="M182.06,373.15c23.59-44.78,46.27-96.48,92-123.11,26.2-15.27,56.63-18.14,86.27-20.27s60.42-4.05,88,8.82c25.43,11.88,43.84,34.35,61.12,55.7,9.77,12.07,19.46,24.29,27.61,37.52s14.38,27.71,19.71,42.38c11.48,31.6,21.42,63.82,32,95.73,10.67,32.12,21.47,64.19,32,96.36a42.84,42.84,0,0,1,2.14,9.61A336.43,336.43,0,0,0,703,357.46c0-186.56-151.24-337.8-337.8-337.8S27.4,170.9,27.4,357.46A336.2,336.2,0,0,0,83.6,544.07C117.67,487.83,151.4,431.34,182.06,373.15Z"/><path class="cls-13" d="M582.9,499.89Q577,482.3,571.19,464.71l-17.57-52.9q-1.39-4.19-2.76-8.39c-4.35-13.25-8.84-27-14.37-39.87-11.81-27.62-31.25-51.53-50.14-73.65-15.62-18.29-35.29-37.81-62.78-43.91-14.7-3.26-30.18-3.08-43.4-2.46-15.77.73-29.77,1.79-42.79,3.23-31.58,3.5-54.94,12.72-73.53,29-19.35,17-33.34,39.38-43.37,57-8,14.12-15.7,28.83-23.1,43.05-5.49,10.56-11.17,21.48-17,32.12-27.79,50.81-57.87,100.86-86.3,147.77l-3.86,6.36c1.28,1.72,2.59,3.42,3.9,5.11l1.58-2.83c30.44-54.64,61.82-109.47,93.26-163q5.08-8.64,10.12-17.34c11.46-19.72,23.3-40.11,36.16-59.42,23.09-34.67,41.8-48,53.87-55,26.7-15.48,58.17-18.78,82.6-19.92,24.68-1.16,55.41-2.59,80,14.53,21.55,15,34.74,37.95,43.83,56.25,9.27,18.66,17.59,38.12,25.64,56.94,3.21,7.51,6.53,15.27,9.85,22.85q13.08,29.84,26.09,59.71c17.09,39.18,34.75,79.69,52.43,119.39A41,41,0,0,1,613,591.78l.19,2.26c1.26-1.32,2.49-2.66,3.72-4-1.19-1.81-8.49-13.11-10.6-19.54C598.6,546.94,590.62,523,582.9,499.89Z"/><path class="cls-13" d="M353.52,679.79l-5.63,20c3.43.17,6.89.28,10.35.35l-.85-3.8C355.83,689.32,354.56,683.93,353.52,679.79Z"/><path class="cls-13" d="M79.33,541.48C112,487.58,146.45,430,177.63,370.82c2.6-4.94,5.26-10.08,7.82-15.06,21.71-42.1,44.16-85.63,86-110,26.4-15.39,55.67-18.59,88.43-20.94,28.68-2.06,61.19-4.39,90.44,9.28,26.81,12.53,46,36.2,62.88,57.08,10,12.38,19.7,24.6,28,38,7.36,12,13.77,25.71,20.15,43.3,8,22.12,15.42,44.86,22.57,66.86,3.09,9.52,6.29,19.36,9.49,29q5.32,16,10.67,32c7,21.07,14.3,42.86,21.33,64.34,1.16,3.54,3.18,9.85,3.67,11.38a341.33,341.33,0,0,0,78.8-218.65c0-189.29-153.45-342.74-342.74-342.74S22.46,168.17,22.46,357.46A341.11,341.11,0,0,0,77.73,544.13Z"/><path class="cls-13" d="M368.25,623.59c-.33-3.87-.58-7.85-.83-11.69-1-15.09-2-30.62-7.61-44.19-1.41,3.92-2.1,9-2.63,12.83-.26,1.89-.51,3.68-.8,5.24a398.44,398.44,0,0,1-10.1,40.93,408.77,408.77,0,0,1-27.15,67.08l-1.59,3.11q5,.7,10,1.25l7.95-28.19c.26-.93.51-2,.77-3,1.74-7.18,4.66-19.2,16.66-19.2h0c13.35,0,16.56,13.56,18.29,20.85l7.43,31.35c1.9-.07,3.79-.15,5.68-.25l-1.2-3.59A314.14,314.14,0,0,1,368.25,623.59Z"/><path class="cls-13" d="M591.74,588.52c-19.17-42.94-38.26-86.76-56.73-129.14-9.23-21.19-18.78-43.1-28.22-64.63-2.75-6.27-5.48-12.68-8.12-18.89-7.79-18.3-15.84-37.23-25.4-54.8-8.14-15-21.38-36-42.35-45.75-11.86-5.53-25.16-6.24-37.75-6.16a386.61,386.61,0,0,0-41.44,2.13c-29.45,3.31-52.27,12.53-69.75,28.19-17.85,16-30.54,36-44.11,58.66-14.34,23.91-29.56,49.68-46.54,78.81-26.92,46.17-53.86,93.48-80.08,140.61l-3.45,6.2q2.71,3.08,5.5,6.1l1.35-3c25.79-56.82,52.69-107.25,82.24-154.17,16.27-25.82,32.17-48.91,48.62-70.58C259.23,344,278.05,321,302,303.45c23.38-17.17,49.34-26.79,75.06-27.83,25.48-1,49.77,7.54,70.29,24.74,37.57,31.51,50.42,78.31,62.85,123.57,1.93,7,3.93,14.29,6,21.27,15.35,52.64,38.24,106.34,68,159.61a43.71,43.71,0,0,1,4,9.16l.86,3q7-6.05,13.68-12.48L599.39,601C596.92,598.54,594.34,594.34,591.74,588.52Z"/><path class="cls-13" d="M290.3,570c7.07-16.88,13.76-34.21,19.88-51.51,2.34-6.63,4.49-13.54,6.56-20.23,3.23-10.4,6.56-21.16,10.81-31.43,7.89-19,21.38-30.76,37-32.12,8.69-.75,17.32,1.94,24.95,7.81a53.83,53.83,0,0,1,15.59,20,118.19,118.19,0,0,1,5.47,14.5l-.74-2.79c-2.61-9.76-5.44-20.14-8.78-30.28-2.76-8.39-6.11-17-11.88-23.42-5.33-5.91-12.21-9.15-18.4-8.65-6.56.53-12.47,6.46-17.69,11.7l-1.51,1.51c-12.38,12.29-23.49,26.65-34,43.9-19.29,31.71-32.77,67.09-45.81,101.31-12.37,32.48-25.17,66.07-43,96.84L226.55,671q5.7,2.52,11.5,4.85l2.8-5A969.93,969.93,0,0,0,290.3,570Z"/><path class="cls-13" d="M517.69,657.37a1467.16,1467.16,0,0,1-51.84-168.61c-3.15-13-5.91-26.25-8.59-39.08-2.39-11.45-4.86-23.28-7.58-34.83-6.16-26.13-15.94-41.74-31.73-50.64-17.34-9.77-37.54-11.18-58.41-4.08-18.21,6.19-36.36,18.58-51.11,34.87-16.36,18.07-28.64,39.18-39.82,59.26-12.49,22.43-24.05,45.77-34.35,69.36-4.37,10-8.61,20.32-12.71,30.3-11.92,29-24.24,59-41.58,86l-2.71,4.21q6.39,4.2,13,8.12c9-20.94,20.1-46.79,28.71-67.82,9.89-24.14,19.27-48.49,29.82-72.35,17.06-38.62,38-76.41,68.49-106.1,14.07-13.68,31-27.67,49.76-34.17,19.28-6.68,37.52,1.25,48.67,17.7,6.14,9.07,9.46,19.82,12.3,30.29,3,11.09,5.92,22.21,9,33.29q9.69,35.08,20.35,69.88c14.11,46.09,29.93,91.62,46.08,137,.8,2.25,2.73,8.67,2.45,10.1-2,.92-4.09,1.81-6.15,2.69-1.6-.91-4.93-7.31-5.94-10.13-17.38-48.75-34.23-97.7-49.18-147.25q-9.81-32.52-18.79-65.28c-3-10.94-5.7-22-8.89-32.86-2.81-9.6-6.4-19.42-13.18-27-6.14-6.85-14.3-11.56-23.72-11-10.55.58-20.21,6.4-28.82,12.06-16,10.54-30.1,23.87-42.41,38.54-27.14,32.34-45.06,71.22-61,110-15.44,37.52-32.87,80.09-48.88,117.42,3.16,1.76,6.34,3.48,9.56,5.13l2.65-4.54c17.64-30.28,30.4-63.82,42.75-96.26q3.68-9.67,7.39-19.3c16.18-41.74,31.61-75.73,54.33-105.94a234.08,234.08,0,0,1,19.49-22.94l.7-.72c6.41-6.58,13.67-14,22.82-18,20.34-8.77,40.65,4.07,50.91,19.71,5.68,8.66,9,18.52,11.75,27.09,3.45,10.91,6.39,21.87,9.36,33.07,5.09,19.25,11.18,41.59,19,63.15,7.44,20.41,15.18,42.25,20.9,65.1,4.11,16.44,8,37.72,11.38,56.51,1.23,6.75,2.38,13.13,3.49,19,0,.09,0,.18,0,.27A340.92,340.92,0,0,0,520.65,663l-2.33-4.25A10.84,10.84,0,0,1,517.69,657.37Z"/><path class="cls-13" d="M462.22,663.5c-3.64-20.21-7.76-43.12-12.21-60.28-4.85-18.7-11.47-37.2-17.88-55.08q-2.24-6.25-4.46-12.52c-5.34-15.12-9.66-30.7-13.74-46,1.62,7,2.92,14,4.2,21q.62,3.34,1.24,6.65,1.26,6.68,2.5,13.36c2.67,14.36,5.43,29.2,8.64,43.67A932,932,0,0,0,461.1,681.14l1.73,4.93c1.14-.34,2.29-.67,3.43-1a5.32,5.32,0,0,1-.25-.86C464.8,677.85,463.55,670.88,462.22,663.5Z"/><path class="cls-13" d="M409.46,571.61c-2.48-11.64-4.68-23.51-6.8-35-1.13-6.12-2.3-12.44-3.5-18.64-2-10.44-3.83-18.88-5.71-26.56-1.95-7.94-4-16.15-7.84-23.19s-9.9-11.92-16.1-13c-4.73-.86-9.26.53-13.44,4.11-8.93,7.65-12.63,20.5-16.21,32.92-.9,3.13-1.83,6.36-2.82,9.4A995,995,0,0,1,259.1,679.21l-2,3.57q7.75,2.58,15.67,4.79c8.43-11.87,16.29-30.93,22.06-44q10.84-24.47,20.43-49.47c11.08-28.86,20.65-58.17,29.51-87.77,3-10.15,8.58-22.46,21.09-22.09,13.94.41,19.54,15,20.93,26.6,3.65,30.6,7.55,60.77,14.68,90.81,7.08,29.8,18.19,63.44,29.47,91.91q-5,1-10,1.76c-11.58-29.35-22.85-63.92-30-94.67a681.78,681.78,0,0,1-13.82-86.42c-.64-6.4-1.43-14.41-7.25-18.36-5-3.38-9.37-.64-12,4.1-3.09,5.52-4.33,12.1-6.13,18.1q-3,10-6.15,19.86-13.25,41.41-29.76,81.68-8.14,19.84-17,39.36c-4.11,9-10.61,22.77-16,31.2,4.62,1.14,9.26,2.2,13.95,3.15l3.08-5.9a386.74,386.74,0,0,0,29.68-74.91c3.44-12.32,5.94-25.1,8.36-37.46l1-5.32c3.17-16.08,10.35-25.36,21.35-27.59a10.23,10.23,0,0,1,10.77,4.38C384.37,566,385.9,589,387.39,611.31c.15,2.18.29,4.35.45,6.51a297.9,297.9,0,0,0,15.06,74.23l2,5.85a341.49,341.49,0,0,0,38.55-6.68L442,686.89C436.58,670.46,416.48,604.54,409.46,571.61Z"/><path class="cls-13" d="M566.82,614.75c-32.07-57.18-56.61-116-72.94-174.77q-1.54-5.55-3.08-11.22c-12-43.86-25.5-93.58-65.13-119.74-19-12.56-42.56-16.43-66.28-10.89-22.18,5.17-43.64,17.53-63.78,36.72-19.42,18.51-35.49,40.44-50.28,61.31-15.36,21.68-30.4,44.79-44.69,68.67-24.68,41.23-47.39,85-69.45,133.86l-2.91,6.45a344.56,344.56,0,0,0,32.58,27.52l2.51-3.91c17.51-27.29,30.16-58.16,42.39-88,6.84-16.71,13.92-34,21.79-50.5a726.89,726.89,0,0,1,37.79-70.1c15.71-25.41,30.77-43.43,47.39-56.72,20.41-16.31,42.86-25.8,64.94-27.46,22.58-1.69,45.09,5.19,61.72,18.89,19.33,15.92,26.54,39.84,31.46,63.32l.39,1.84c5.22,24.92,10.61,50.68,16.92,75.77a1457.39,1457.39,0,0,0,48,154l1.46,3.91c1.95-1.14,3.89-2.28,5.81-3.45-1.59-1.91-4.28-9.26-5.4-12.88-18.56-60.29-35.78-121-53.66-181.47-7.49-25.31-13.82-51.37-23-76.12-4.11-11-9.69-21.51-18.1-29.85-8-7.88-17.77-13.7-28-18.11-11.52-5-24.44-9.28-37.12-8.86s-24,6.62-34.23,13.52c-19.58,13.2-36.94,29.63-52.44,47.38-32.76,37.52-58.11,81.82-79.59,126.56-18,37.55-35.73,81-60.17,114.82q-3.87-3.1-7.64-6.3c29.9-41.11,48.8-95.19,72.43-139.83,23.49-44.38,51.07-88,87.54-122.95a278.78,278.78,0,0,1,27.21-22.92c9.76-7.21,20.12-14,31.78-17.69,23.51-7.45,51.21,2.5,71.41,14.94a82.67,82.67,0,0,1,25,23.23c6.87,10,11.24,21.45,14.9,32.91,8.46,26.48,15.86,53.33,23.74,80,16.57,56,32.53,112.25,49.71,168.1a83.55,83.55,0,0,1,2.39,11.39q14.21-9.12,27.42-19.57l-3.08-2.41A31.51,31.51,0,0,1,566.82,614.75Z"/><path class="cls-14" d="M563.58,368.27c-5.36-10.44-12-20.16-16.86-30.86-1.52-3.31-2.9-6.67-4.39-10-5.07-11.33-12.83-21.09-20.13-31.06a367.56,367.56,0,0,0-24.5-30.56c-23.14-25.41-52.27-44.93-87.54-46.07-6.81-.22-13.64-.19-20.47,0-14.16-.7-28.54.39-42.56.89-19.1.67-38.39,1.06-57.21,4.67-17.65,3.39-34,10.29-47.95,21.67-13.78,11.21-24.6,25.55-35.39,39.51-6.7,8.67-13.37,17.4-19,26.84a165.62,165.62,0,0,0-13.49,29.89c-3.56,10.12-6.9,20.45-9.54,30.85-1.81,7.16-2.94,14.51-2.31,21.77A31.67,31.67,0,0,0,165.58,415c8.85,16.81,28.95,22.1,46.57,19.69,20.8-2.85,38.79-14.11,56.92-23.86,9.31-5,19.88-9.52,29.52-2.83,7.65,5.31,14,12.26,21.91,17.28s17,8.63,26.5,8.25c7.46-.29,14.49-2.89,21-6.35,12.8-6.78,25.71-19.82,41.14-19.23,10.1.38,19,6.92,27.24,12,9.08,5.61,18,12.07,27.75,16.56,8.27,3.83,17.66,5.86,26.09,1.31,7-3.76,10.59-12.52,18-15.35,4.91-1.89,10.64-.65,15.73-.43s10-.19,14.58-2.42c7.36-3.64,11.78-10.87,15.09-18.13,7.34-2.16,12.09-11.16,14.3-18C569.77,377.84,566.15,373.27,563.58,368.27Z"/><path d="M167.13,265.9a66,66,0,0,1-9.56-15.46,41,41,0,0,1-2.33-6.75,24.05,24.05,0,0,1-.73-7.2,22.48,22.48,0,0,1,1.56-7.11,20.24,20.24,0,0,1,4.66-6.8,18.67,18.67,0,0,1,9.56-4.26,25.82,25.82,0,0,1,11.3,1.51c4.41,1.45,9.36,4.77,14.85,10.06a210,210,0,0,1,14.38,15.58q6.44,7.76,11.08,14.1,5.34,7.44,9.68,14.17a55.94,55.94,0,0,1,6.38,14,35.52,35.52,0,0,1,1.28,6.29,28.8,28.8,0,0,1,0,6.56,20.84,20.84,0,0,1-1.77,6.34,19.62,19.62,0,0,1-4.08,5.7,14.62,14.62,0,0,1-6.29,3.89,15.37,15.37,0,0,1-6.66.39,22.66,22.66,0,0,1-6.57-2.12,51,51,0,0,1-6.12-3.57,77.88,77.88,0,0,1-13.56-12.55l-3.68,3.5a78.49,78.49,0,0,1,8.78,17.1,66.27,66.27,0,0,1,2,7.46,30.87,30.87,0,0,1,.69,7.5,22.5,22.5,0,0,1-1.42,7.08,15.2,15.2,0,0,1-13.65,9.87,27.83,27.83,0,0,1-5-.43,20.72,20.72,0,0,1-6-2.15A41.4,41.4,0,0,1,169,344a62.16,62.16,0,0,1-7.62-7.45c-6.35-7.08-11.74-13.4-16.15-19s-8.09-10.37-11-14.38c-3.41-4.71-6.22-8.83-8.43-12.4A52.18,52.18,0,0,1,120,278.58a31.09,31.09,0,0,1-1.17-5.27,21.28,21.28,0,0,1,0-5.44,16.21,16.21,0,0,1,1.56-5.24A15.54,15.54,0,0,1,124,258a18,18,0,0,1,6.65-4,19.35,19.35,0,0,1,6.77-.89,19.91,19.91,0,0,1,6.59,1.48,47.19,47.19,0,0,1,6.1,3,54.89,54.89,0,0,1,13.23,11.95Z"/><path d="M243.65,263.83q-3.16-6.21-6.21-13.83t-5.4-14.3q-2.76-7.78-5.34-15.79A77.36,77.36,0,0,1,223.23,201a55.66,55.66,0,0,1,.3-7.78,30.63,30.63,0,0,1,1.8-7.58,26.63,26.63,0,0,1,3.88-6.87,20.94,20.94,0,0,1,6.59-5.48,17.13,17.13,0,0,1,10.45-1.22,22,22,0,0,1,4.89,1.68,22.81,22.81,0,0,1,5.41,3.71,41.53,41.53,0,0,1,5.62,6.31,64.72,64.72,0,0,1,5.58,9.27q5.12,10.69,8.94,20.75t6.41,18q2.87,9.15,5.09,17.32A64.45,64.45,0,0,1,290.11,265a55.22,55.22,0,0,1-.74,6.47,27.51,27.51,0,0,1-1.94,6.38,20.11,20.11,0,0,1-3.68,5.58,19.37,19.37,0,0,1-5.78,4.17,15.62,15.62,0,0,1-7.37,1.74,18.66,18.66,0,0,1-6.71-1.47,21.46,21.46,0,0,1-5.85-3.69,48.21,48.21,0,0,1-5-5A72.75,72.75,0,0,1,243.65,263.83Z"/><path d="M332.37,184.8a65,65,0,0,1,13.48,2,42.79,42.79,0,0,1,10.21,4.1,33.67,33.67,0,0,1,7.36,5.59,40.27,40.27,0,0,1,5,6.26,37.83,37.83,0,0,1,5.71,16.7,63.67,63.67,0,0,1-.18,14.54,45.57,45.57,0,0,1-3,11.37,35.16,35.16,0,0,1-4.94,8.45,45.67,45.67,0,0,1-5.89,6.12,40.26,40.26,0,0,1-16.91,8A61.6,61.6,0,0,1,330,269.58a39.21,39.21,0,0,1-10.21-1.16,26.8,26.8,0,0,1-7.47-3.13,20.64,20.64,0,0,1-5.08-4.41,24.22,24.22,0,0,1-6-13.64,36.08,36.08,0,0,1,.3-10.12,21.61,21.61,0,0,1,2.73-7.3,19.92,19.92,0,0,1,4.49-5.12,26.68,26.68,0,0,1,5.33-3.34,34.67,34.67,0,0,1,15.24-2.61,37.72,37.72,0,0,1-10.54-3.18,31.34,31.34,0,0,1-7.74-5.25,32.08,32.08,0,0,1-5.42-6.54,47.27,47.27,0,0,1-3.55-6.87A49.76,49.76,0,0,1,298.83,179a54.91,54.91,0,0,1,1.29-11.89A41.4,41.4,0,0,1,303.3,158a33.31,33.31,0,0,1,4.35-6.73,28.31,28.31,0,0,1,4.95-4.66,30.21,30.21,0,0,1,13.5-5.51C334.37,139.41,341,139,346,140s8.87,2.59,11.57,4.9A16.5,16.5,0,0,1,363,153a35.11,35.11,0,0,1,1.39,8.63,21.32,21.32,0,0,1-1.32,7.89,19.11,19.11,0,0,1-3.54,5.81,22.39,22.39,0,0,1-5.12,4.21,27.19,27.19,0,0,1-5.93,2.69A46.42,46.42,0,0,1,332.37,184.8Z"/><path d="M408.55,165.64a40.85,40.85,0,0,1,7.78-11.55A28,28,0,0,1,426,147.6c3.88-1.61,8.4-1.54,13.56.19a25.23,25.23,0,0,1,10.74,7A32.39,32.39,0,0,1,456.5,165a43.25,43.25,0,0,1,2.59,11.56,84.89,84.89,0,0,1,.22,11.34,80.13,80.13,0,0,1-1,9.32c-.45,2.63-.77,4.46-.94,5.5a107.06,107.06,0,0,1,4.64-14.2,60.11,60.11,0,0,1,5.08-9.84,27.73,27.73,0,0,1,5.26-6.15,20.39,20.39,0,0,1,5.06-3.19,14.27,14.27,0,0,1,11.43,0,18.43,18.43,0,0,1,9,6.64,25.51,25.51,0,0,1,3.88,8.58,30.45,30.45,0,0,1,.57,10.49,184,184,0,0,1-5.09,27.77q-3.45,12.86-6.79,22.79-4,11.46-8.49,21.5a57.31,57.31,0,0,1-4.67,8.46,36.34,36.34,0,0,1-4.7,5.69,20.29,20.29,0,0,1-4.59,3.4,18.68,18.68,0,0,1-4.2,1.63,14,14,0,0,1-9-1,21.69,21.69,0,0,1-10.8-7A36.59,36.59,0,0,1,437.83,267,57.37,57.37,0,0,1,435,253.67a120.28,120.28,0,0,1-.59-13.09,92,92,0,0,1,.65-10.51q.57-4.42.79-5.82a142.14,142.14,0,0,1-4.94,17.85,81.09,81.09,0,0,1-5.48,12.34,40.27,40.27,0,0,1-5.6,7.88,20.67,20.67,0,0,1-5.37,4.26,13.12,13.12,0,0,1-12.23.52,14.11,14.11,0,0,1-8.36-5.9,27.88,27.88,0,0,1-3.74-8.59,37.37,37.37,0,0,1-.87-11,182.57,182.57,0,0,1,4.09-28.11q3.09-13.6,6.53-24.33A230.15,230.15,0,0,1,408.55,165.64Z"/><path d="M540.91,349a20.73,20.73,0,0,1-6-3,21.31,21.31,0,0,1-4.65-4.5,19.1,19.1,0,0,1-3.36-7.18,28.21,28.21,0,0,1-.76-9.55,48.29,48.29,0,0,1,1.54-8.57,39.14,39.14,0,0,1,2.44-6.61q1.35-2.74,2-3.86c-.6.63-1.65,1.57-3.15,2.85a34.58,34.58,0,0,1-5.55,3.76,39.09,39.09,0,0,1-7.45,3.14,21.47,21.47,0,0,1-8.75.8,16.27,16.27,0,0,1-7.16-2.48,23.09,23.09,0,0,1-5.06-4.4,26.93,26.93,0,0,1-4-6.18,18.61,18.61,0,0,1-1.61-5.82,20.81,20.81,0,0,1,.2-5.78,34.22,34.22,0,0,1,1.5-5.64,36.32,36.32,0,0,1,2.3-5.17,60,60,0,0,1,7.5-11,124.84,124.84,0,0,1,14.65-14.93,105.78,105.78,0,0,1,14.14-10.25,89.76,89.76,0,0,1,13.13-6.55q6.23-2.45,11.63-4a39.48,39.48,0,0,1,14-1.89,37.9,37.9,0,0,1,10,2,22.84,22.84,0,0,1,6.18,3.15q2.09,1.65,2.39,1.93c.2.19.9.93,2.09,2.25a23.23,23.23,0,0,1,3.59,5.93,40.65,40.65,0,0,1,2.8,9.88,42.44,42.44,0,0,1-.48,14.29q-1,5.59-2.68,12.15a124,124,0,0,1-4.67,14.17,141.66,141.66,0,0,1-7.6,16.08,168.47,168.47,0,0,1-11.4,17.83,62.77,62.77,0,0,1-8.57,10.09,36.19,36.19,0,0,1-4.19,3.48,27.15,27.15,0,0,1-4.74,2.72,17.44,17.44,0,0,1-5,1.4A13.29,13.29,0,0,1,540.91,349Zm11.42-67.85a4.7,4.7,0,0,0-4.24-1.11,5.66,5.66,0,0,0-3.94,2.63c-1.26,1.87-1.81,3.47-1.64,4.78a5.7,5.7,0,0,0,2,3.53,4.59,4.59,0,0,0,3.8,1.3,5.78,5.78,0,0,0,3.79-2.38,8.77,8.77,0,0,0,1.89-4.51A4.75,4.75,0,0,0,552.33,281.18Z"/></g></svg>