<?xml version="1.0" encoding="UTF-8" standalone="no"?><!DOCTYPE svg PUBLIC "-//W3C//DTD SVG 1.1//EN" "http://www.w3.org/Graphics/SVG/1.1/DTD/svg11.dtd"><svg width="100%" height="100%" viewBox="0 0 553 145" version="1.1" xmlns="http://www.w3.org/2000/svg" xmlns:xlink="http://www.w3.org/1999/xlink" xml:space="preserve" style="fill-rule:evenodd;clip-rule:evenodd;stroke-linejoin:round;stroke-miterlimit:1.41421;"><path d="M72.484,0l0.233,0.001l0.233,0.002l0.233,0.003l0.233,0.003l0.233,0.004l0.232,0.005l0.233,0.006l0.232,0.006l0.232,0.007l0.231,0.008l0.232,0.008l0.232,0.009l0.231,0.01l0.231,0.011l0.231,0.011l0.23,0.012l0.231,0.013l0.23,0.013l0.23,0.015l0.23,0.015l0.23,0.015l0.229,0.017l0.23,0.017l0.229,0.018l0.229,0.018l0.228,0.019l0.229,0.02l0.228,0.021l0.228,0.021l0.228,0.023l0.228,0.022l0.227,0.024l0.227,0.024l0.228,0.025l0.226,0.026l0.227,0.026l0.226,0.027l0.227,0.028l0.226,0.028l0.225,0.029l0.226,0.03l0.225,0.03l0.226,0.031l0.224,0.032l0.225,0.033l0.225,0.033l0.224,0.034l0.224,0.035l0.224,0.035l0.223,0.036l0.223,0.037l0.224,0.037l0.222,0.038l0.223,0.039l0.222,0.039l0.223,0.04l0.222,0.041l0.221,0.042l0.222,0.042l0.221,0.043l0.221,0.043l0.221,0.044l0.22,0.045l0.22,0.045l0.221,0.047l0.219,0.046l0.22,0.048l0.219,0.048l0.219,0.049l0.219,0.049l0.218,0.05l0.219,0.051l0.218,0.052l0.217,0.052l0.218,0.053l0.217,0.053l0.217,0.054l0.217,0.055l0.216,0.055l0.217,0.056l0.216,0.057l0.215,0.057l0.216,0.058l0.215,0.059l0.215,0.059l0.215,0.06l0.214,0.061l0.214,0.061l0.214,0.062l0.213,0.062l0.214,0.064l0.213,0.063l0.212,0.065l0.213,0.065l0.212,0.066l0.212,0.066l0.212,0.067l0.211,0.067l0.211,0.069l0.211,0.068l0.21,0.07l0.21,0.07l0.21,0.071l0.21,0.071l0.209,0.072l0.209,0.073l0.209,0.073l0.209,0.074l0.208,0.074l0.208,0.075l0.207,0.076l0.208,0.076l0.207,0.077l0.206,0.078l0.207,0.078l0.206,0.079l0.206,0.079l0.205,0.08l0.205,0.081l0.205,0.081l0.205,0.082l0.204,0.082l0.204,0.083l0.204,0.084l0.203,0.084l0.203,0.085l0.203,0.086l0.202,0.086l0.202,0.086l0.202,0.087l0.201,0.088l0.202,0.089l0.2,0.089l0.201,0.089l0.2,0.09l0.2,0.091l0.199,0.092l0.2,0.092l0.198,0.092l0.199,0.093l0.198,0.094l0.198,0.094l0.198,0.095l0.197,0.096l0.197,0.096l0.196,0.096l0.197,0.098l0.196,0.097l0.195,0.099l0.195,0.099l0.195,0.099l0.195,0.1l0.194,0.101l0.194,0.101l0.193,0.102l0.193,0.102l0.193,0.103l0.193,0.104l0.192,0.104l0.192,0.104l0.191,0.105l0.191,0.106l0.191,0.106l0.19,0.107l0.19,0.108l0.19,0.108l0.189,0.108l0.189,0.109l0.189,0.11l0.188,0.11l0.188,0.111l0.187,0.111l0.187,0.112l0.187,0.112l0.186,0.113l0.186,0.114l0.186,0.114l0.185,0.114l0.185,0.115l0.185,0.116l0.184,0.116l0.184,0.117l0.183,0.117l0.183,0.118l0.183,0.118l0.182,0.119l0.182,0.119l0.182,0.12l0.181,0.121l0.181,0.121l0.18,0.121l0.18,0.122l0.18,0.123l0.179,0.123l0.179,0.124l0.178,0.124l0.178,0.124l0.178,0.125l0.177,0.126l0.177,0.126l0.176,0.127l0.176,0.127l0.176,0.128l0.175,0.128l0.175,0.129l0.175,0.13l0.174,0.129l0.174,0.131l0.173,0.131l0.173,0.131l0.172,0.132l0.172,0.132l0.172,0.133l0.171,0.133l0.171,0.134l0.17,0.135l0.17,0.134l0.17,0.136l0.169,0.136l0.169,0.136l0.168,0.137l0.168,0.137l0.168,0.138l0.167,0.138l0.166,0.139l0.167,0.139l0.165,0.14l0.166,0.141l0.165,0.14l0.164,0.142l0.164,0.141l0.164,0.143l0.163,0.142l0.163,0.143l0.163,0.144l0.161,0.144l0.162,0.145l0.161,0.145l0.161,0.146l0.16,0.146l0.16,0.146l0.159,0.147l0.159,0.148l0.158,0.148l0.158,0.148l0.158,0.149l0.157,0.149l0.157,0.15l0.156,0.15l0.155,0.151l0.156,0.151l0.155,0.152l0.154,0.152l0.154,0.153l0.153,0.153l0.153,0.153l0.153,0.154l0.152,0.154l0.152,0.155l0.151,0.156l0.151,0.155l0.15,0.156l0.15,0.157l0.149,0.157l0.149,0.158l0.148,0.158l0.148,0.158l0.148,0.159l0.147,0.159l0.146,0.16l0.146,0.16l0.146,0.161l0.145,0.161l0.145,0.162l0.144,0.161l0.144,0.163l0.143,0.163l0.142,0.163l0.143,0.164l0.141,0.164l0.142,0.164l0.14,0.165l0.141,0.166l0.14,0.165l0.139,0.167l0.139,0.166l0.138,0.167l0.138,0.168l0.137,0.168l0.137,0.168l0.136,0.169l0.136,0.169l0.136,0.17l0.134,0.17l0.135,0.17l0.134,0.171l0.133,0.171l0.133,0.172l0.132,0.172l0.132,0.172l0.131,0.173l0.131,0.173l0.131,0.174l0.129,0.174l0.13,0.175l0.129,0.175l0.128,0.175l0.128,0.176l0.127,0.176l0.127,0.176l0.126,0.177l0.126,0.177l0.125,0.178l0.124,0.178l0.124,0.178l0.124,0.179l0.123,0.179l0.123,0.18l0.122,0.18l0.121,0.18l0.121,0.181l0.121,0.181l0.12,0.182l0.119,0.182l0.119,0.182l0.118,0.183l0.118,0.183l0.117,0.183l0.117,0.184l0.116,0.184l0.116,0.185l0.115,0.185l0.114,0.185l0.114,0.186l0.114,0.186l0.113,0.186l0.112,0.187l0.112,0.187l0.111,0.187l0.111,0.188l0.11,0.188l0.11,0.189l0.109,0.189l0.108,0.189l0.108,0.19l0.108,0.19l0.107,0.19l0.106,0.191l0.106,0.191l0.105,0.191l0.104,0.192l0.104,0.192l0.104,0.193l0.103,0.193l0.102,0.193l0.102,0.193l0.101,0.194l0.101,0.194l0.1,0.195l0.099,0.195l0.099,0.195l0.099,0.195l0.097,0.196l0.098,0.197l0.096,0.196l0.096,0.197l0.096,0.197l0.095,0.198l0.094,0.198l0.094,0.198l0.093,0.199l0.092,0.198l0.092,0.2l0.092,0.199l0.091,0.2l0.09,0.2l0.089,0.201l0.089,0.2l0.089,0.202l0.088,0.201l0.087,0.202l0.086,0.202l0.086,0.202l0.086,0.203l0.085,0.203l0.084,0.203l0.084,0.204l0.083,0.204l0.082,0.204l0.082,0.205l0.081,0.205l0.081,0.205l0.08,0.205l0.079,0.206l0.079,0.206l0.078,0.207l0.078,0.206l0.077,0.207l0.076,0.208l0.076,0.207l0.075,0.208l0.074,0.208l0.074,0.209l0.073,0.209l0.073,0.209l0.072,0.209l0.071,0.21l0.071,0.21l0.07,0.21l0.07,0.21l0.068,0.211l0.069,0.211l0.067,0.211l0.067,0.212l0.066,0.212l0.066,0.212l0.065,0.213l0.065,0.212l0.063,0.213l0.064,0.214l0.062,0.213l0.062,0.214l0.061,0.214l0.061,0.214l0.06,0.215l0.059,0.215l0.059,0.215l0.058,0.216l0.057,0.215l0.057,0.216l0.056,0.217l0.055,0.216l0.055,0.217l0.054,0.217l0.053,0.217l0.053,0.218l0.052,0.217l0.052,0.218l0.051,0.219l0.05,0.218l0.049,0.219l0.049,0.219l0.048,0.219l0.048,0.22l0.046,0.219l0.047,0.221l0.045,0.22l0.045,0.22l0.044,0.221l0.043,0.221l0.043,0.221l0.042,0.222l0.042,0.221l0.041,0.222l0.04,0.223l0.039,0.222l0.039,0.223l0.038,0.222l0.037,0.224l0.037,0.223l0.036,0.223l0.035,0.224l0.035,0.224l0.034,0.224l0.033,0.225l0.033,0.225l0.032,0.224l0.031,0.226l0.03,0.225l0.03,0.226l0.029,0.225l0.028,0.226l0.028,0.227l0.027,0.226l0.026,0.227l0.026,0.226l0.025,0.228l0.024,0.227l0.024,0.227l0.022,0.228l0.023,0.228l0.021,0.228l0.021,0.228l0.02,0.229l0.019,0.228l0.018,0.229l0.018,0.229l0.017,0.23l0.017,0.229l0.015,0.23l0.015,0.23l0.015,0.23l0.013,0.23l0.013,0.231l0.012,0.23l0.011,0.231l0.011,0.231l0.01,0.231l0.009,0.232l0.008,0.232l0.008,0.231l0.007,0.232l0.006,0.232l0.006,0.233l0.005,0.232l0.004,0.233l0.003,0.233l0.003,0.233l0.002,0.233l0.001,0.233l0,0.234l0,0.234l-0.001,0.233l-0.002,0.233l-0.003,0.233l-0.003,0.233l-0.004,0.233l-0.005,0.232l-0.006,0.233l-0.006,0.232l-0.007,0.232l-0.008,0.231l-0.008,0.232l-0.009,0.232l-0.01,0.231l-0.011,0.231l-0.011,0.231l-0.012,0.23l-0.013,0.231l-0.013,0.23l-0.015,0.23l-0.015,0.23l-0.015,0.23l-0.017,0.229l-0.017,0.23l-0.018,0.229l-0.018,0.229l-0.019,0.228l-0.02,0.229l-0.021,0.228l-0.021,0.228l-0.023,0.228l-0.022,0.228l-0.024,0.227l-0.024,0.227l-0.025,0.228l-0.026,0.226l-0.026,0.227l-0.027,0.226l-0.028,0.227l-0.028,0.226l-0.029,0.225l-0.03,0.226l-0.03,0.225l-0.031,0.226l-0.032,0.224l-0.033,0.225l-0.033,0.225l-0.034,0.224l-0.035,0.224l-0.035,0.224l-0.036,0.223l-0.037,0.223l-0.037,0.224l-0.038,0.222l-0.039,0.223l-0.039,0.222l-0.04,0.223l-0.041,0.222l-0.042,0.221l-0.042,0.222l-0.043,0.221l-0.043,0.221l-0.044,0.221l-0.045,0.22l-0.045,0.22l-0.047,0.221l-0.046,0.219l-0.048,0.22l-0.048,0.219l-0.049,0.219l-0.049,0.219l-0.05,0.218l-0.051,0.219l-0.052,0.218l-0.052,0.217l-0.053,0.218l-0.053,0.217l-0.054,0.217l-0.055,0.217l-0.055,0.216l-0.056,0.217l-0.057,0.216l-0.057,0.215l-0.058,0.216l-0.059,0.215l-0.059,0.215l-0.06,0.215l-0.061,0.214l-0.061,0.214l-0.062,0.214l-0.062,0.213l-0.064,0.214l-0.063,0.213l-0.065,0.212l-0.065,0.213l-0.066,0.212l-0.066,0.212l-0.067,0.212l-0.067,0.211l-0.069,0.211l-0.068,0.211l-0.07,0.21l-0.07,0.21l-0.071,0.21l-0.071,0.21l-0.072,0.209l-0.073,0.209l-0.073,0.209l-0.074,0.209l-0.074,0.208l-0.075,0.208l-0.076,0.207l-0.076,0.208l-0.077,0.207l-0.078,0.206l-0.078,0.207l-0.079,0.206l-0.079,0.206l-0.08,0.205l-0.081,0.205l-0.081,0.205l-0.082,0.205l-0.082,0.204l-0.083,0.204l-0.084,0.204l-0.084,0.203l-0.085,0.203l-0.086,0.203l-0.086,0.202l-0.086,0.202l-0.087,0.202l-0.088,0.201l-0.089,0.202l-0.089,0.2l-0.089,0.201l-0.09,0.2l-0.091,0.2l-0.092,0.199l-0.092,0.2l-0.092,0.198l-0.093,0.199l-0.094,0.198l-0.094,0.198l-0.095,0.198l-0.096,0.197l-0.096,0.197l-0.096,0.196l-0.098,0.197l-0.097,0.196l-0.099,0.195l-0.099,0.195l-0.099,0.195l-0.1,0.195l-0.101,0.194l-0.101,0.194l-0.102,0.193l-0.102,0.193l-0.103,0.193l-0.104,0.193l-0.104,0.192l-0.104,0.192l-0.105,0.191l-0.106,0.191l-0.106,0.191l-0.107,0.19l-0.108,0.19l-0.108,0.19l-0.108,0.189l-0.109,0.189l-0.11,0.189l-0.11,0.188l-0.111,0.188l-0.111,0.187l-0.112,0.187l-0.112,0.187l-0.113,0.186l-0.114,0.186l-0.114,0.186l-0.114,0.185l-0.115,0.185l-0.116,0.185l-0.116,0.184l-0.117,0.184l-0.117,0.183l-0.118,0.183l-0.118,0.183l-0.119,0.182l-0.119,0.182l-0.12,0.182l-0.121,0.181l-0.121,0.181l-0.121,0.18l-0.122,0.18l-0.123,0.18l-0.123,0.179l-0.124,0.179l-0.124,0.178l-0.124,0.178l-0.125,0.178l-0.126,0.177l-0.126,0.177l-0.127,0.176l-0.127,0.176l-0.128,0.176l-0.128,0.175l-0.129,0.175l-0.13,0.175l-0.129,0.174l-0.131,0.174l-0.131,0.173l-0.131,0.173l-0.132,0.172l-0.132,0.172l-0.133,0.172l-0.133,0.171l-0.134,0.171l-0.135,0.17l-0.134,0.17l-0.136,0.17l-0.136,0.169l-0.136,0.169l-0.137,0.168l-0.137,0.168l-0.138,0.168l-0.138,0.167l-0.139,0.166l-0.139,0.167l-0.14,0.165l-0.141,0.166l-0.14,0.165l-0.142,0.164l-0.141,0.164l-0.143,0.164l-0.142,0.163l-0.143,0.163l-0.144,0.163l-0.144,0.161l-0.145,0.162l-0.145,0.161l-0.146,0.161l-0.146,0.16l-0.146,0.16l-0.147,0.159l-0.148,0.159l-0.148,0.158l-0.148,0.158l-0.149,0.158l-0.149,0.157l-0.15,0.157l-0.15,0.156l-0.151,0.155l-0.151,0.156l-0.152,0.155l-0.152,0.154l-0.153,0.154l-0.153,0.153l-0.153,0.153l-0.154,0.153l-0.154,0.152l-0.155,0.152l-0.156,0.151l-0.155,0.151l-0.156,0.15l-0.157,0.15l-0.157,0.149l-0.158,0.149l-0.158,0.148l-0.158,0.148l-0.159,0.148l-0.159,0.147l-0.16,0.146l-0.16,0.146l-0.161,0.146l-0.161,0.145l-0.162,0.145l-0.161,0.144l-0.163,0.144l-0.163,0.143l-0.163,0.142l-0.164,0.143l-0.164,0.141l-0.164,0.142l-0.165,0.14l-0.166,0.141l-0.165,0.14l-0.167,0.139l-0.166,0.139l-0.167,0.138l-0.168,0.138l-0.168,0.137l-0.168,0.137l-0.169,0.136l-0.169,0.136l-0.17,0.136l-0.17,0.134l-0.17,0.135l-0.171,0.134l-0.171,0.133l-0.172,0.133l-0.172,0.132l-0.172,0.132l-0.173,0.131l-0.173,0.131l-0.174,0.131l-0.174,0.129l-0.175,0.13l-0.175,0.129l-0.175,0.128l-0.176,0.128l-0.176,0.127l-0.176,0.127l-0.177,0.126l-0.177,0.126l-0.178,0.125l-0.178,0.124l-0.178,0.124l-0.179,0.124l-0.179,0.123l-0.18,0.123l-0.18,0.122l-0.18,0.121l-0.181,0.121l-0.181,0.121l-0.182,0.12l-0.182,0.119l-0.182,0.119l-0.183,0.118l-0.183,0.118l-0.183,0.117l-0.184,0.117l-0.184,0.116l-0.185,0.116l-0.185,0.115l-0.185,0.114l-0.186,0.114l-0.186,0.114l-0.186,0.113l-0.187,0.112l-0.187,0.112l-0.187,0.111l-0.188,0.111l-0.188,0.11l-0.189,0.11l-0.189,0.109l-0.189,0.108l-0.19,0.108l-0.19,0.108l-0.19,0.107l-0.191,0.106l-0.191,0.106l-0.191,0.105l-0.192,0.104l-0.192,0.104l-0.193,0.104l-0.193,0.103l-0.193,0.102l-0.193,0.102l-0.194,0.101l-0.194,0.101l-0.195,0.1l-0.195,0.099l-0.195,0.099l-0.195,0.099l-0.196,0.097l-0.197,0.098l-0.196,0.096l-0.197,0.096l-0.197,0.096l-0.198,0.095l-0.198,0.094l-0.198,0.094l-0.199,0.093l-0.198,0.092l-0.2,0.092l-0.199,0.092l-0.2,0.091l-0.2,0.09l-0.201,0.089l-0.2,0.089l-0.202,0.089l-0.201,0.088l-0.202,0.087l-0.202,0.086l-0.202,0.086l-0.203,0.086l-0.203,0.085l-0.203,0.084l-0.204,0.084l-0.204,0.083l-0.204,0.082l-0.205,0.082l-0.205,0.081l-0.205,0.081l-0.205,0.08l-0.206,0.079l-0.206,0.079l-0.207,0.078l-0.206,0.078l-0.207,0.077l-0.208,0.076l-0.207,0.076l-0.208,0.075l-0.208,0.074l-0.209,0.074l-0.209,0.073l-0.209,0.073l-0.209,0.072l-0.21,0.071l-0.21,0.071l-0.21,0.07l-0.21,0.07l-0.211,0.068l-0.211,0.069l-0.211,0.067l-0.212,0.067l-0.212,0.066l-0.212,0.066l-0.213,0.065l-0.212,0.065l-0.213,0.063l-0.214,0.064l-0.213,0.062l-0.214,0.062l-0.214,0.061l-0.214,0.061l-0.215,0.06l-0.215,0.059l-0.215,0.059l-0.216,0.058l-0.215,0.057l-0.216,0.057l-0.217,0.056l-0.216,0.055l-0.217,0.055l-0.217,0.054l-0.217,0.053l-0.218,0.053l-0.217,0.052l-0.218,0.052l-0.219,0.051l-0.218,0.05l-0.219,0.049l-0.219,0.049l-0.219,0.048l-0.22,0.048l-0.219,0.046l-0.221,0.047l-0.22,0.045l-0.22,0.045l-0.221,0.044l-0.221,0.043l-0.221,0.043l-0.222,0.042l-0.221,0.042l-0.222,0.041l-0.223,0.04l-0.222,0.039l-0.223,0.039l-0.222,0.038l-0.224,0.037l-0.223,0.037l-0.223,0.036l-0.224,0.035l-0.224,0.035l-0.224,0.034l-0.225,0.033l-0.225,0.033l-0.224,0.032l-0.226,0.031l-0.225,0.03l-0.226,0.03l-0.225,0.029l-0.226,0.028l-0.227,0.028l-0.226,0.027l-0.227,0.026l-0.226,0.026l-0.228,0.025l-0.227,0.024l-0.227,0.024l-0.228,0.022l-0.228,0.023l-0.228,0.021l-0.228,0.021l-0.229,0.02l-0.228,0.019l-0.229,0.018l-0.229,0.018l-0.23,0.017l-0.229,0.017l-0.23,0.015l-0.23,0.015l-0.23,0.015l-0.23,0.013l-0.231,0.013l-0.23,0.012l-0.231,0.011l-0.231,0.011l-0.231,0.01l-0.232,0.009l-0.232,0.008l-0.231,0.008l-0.232,0.007l-0.232,0.006l-0.233,0.006l-0.232,0.005l-0.233,0.004l-0.233,0.003l-0.233,0.003l-0.233,0.002l-0.233,0.001l-0.234,0l-0.234,0l-0.233,-0.001l-0.233,-0.002l-0.233,-0.003l-0.233,-0.003l-0.233,-0.004l-0.232,-0.005l-0.233,-0.006l-0.232,-0.006l-0.232,-0.007l-0.231,-0.008l-0.232,-0.008l-0.232,-0.009l-0.231,-0.01l-0.231,-0.011l-0.231,-0.011l-0.23,-0.012l-0.231,-0.013l-0.23,-0.013l-0.23,-0.015l-0.23,-0.015l-0.23,-0.015l-0.229,-0.017l-0.23,-0.017l-0.229,-0.018l-0.229,-0.018l-0.228,-0.019l-0.229,-0.02l-0.228,-0.021l-0.228,-0.021l-0.228,-0.023l-0.228,-0.022l-0.227,-0.024l-0.227,-0.024l-0.228,-0.025l-0.226,-0.026l-0.227,-0.026l-0.226,-0.027l-0.227,-0.028l-0.226,-0.028l-0.225,-0.029l-0.226,-0.03l-0.225,-0.03l-0.226,-0.031l-0.224,-0.032l-0.225,-0.033l-0.225,-0.033l-0.224,-0.034l-0.224,-0.035l-0.224,-0.035l-0.223,-0.036l-0.223,-0.037l-0.224,-0.037l-0.222,-0.038l-0.223,-0.039l-0.222,-0.039l-0.223,-0.04l-0.222,-0.041l-0.221,-0.042l-0.222,-0.042l-0.221,-0.043l-0.221,-0.043l-0.221,-0.044l-0.22,-0.045l-0.22,-0.045l-0.221,-0.047l-0.219,-0.046l-0.22,-0.048l-0.219,-0.048l-0.219,-0.049l-0.219,-0.049l-0.218,-0.05l-0.219,-0.051l-0.218,-0.052l-0.217,-0.052l-0.218,-0.053l-0.217,-0.053l-0.217,-0.054l-0.217,-0.055l-0.216,-0.055l-0.217,-0.056l-0.216,-0.057l-0.215,-0.057l-0.216,-0.058l-0.215,-0.059l-0.215,-0.059l-0.215,-0.06l-0.214,-0.061l-0.214,-0.061l-0.214,-0.062l-0.213,-0.062l-0.214,-0.064l-0.213,-0.063l-0.212,-0.065l-0.213,-0.065l-0.212,-0.066l-0.212,-0.066l-0.212,-0.067l-0.211,-0.067l-0.211,-0.069l-0.211,-0.068l-0.21,-0.07l-0.21,-0.07l-0.21,-0.071l-0.21,-0.071l-0.209,-0.072l-0.209,-0.073l-0.209,-0.073l-0.209,-0.074l-0.208,-0.074l-0.208,-0.075l-0.207,-0.076l-0.208,-0.076l-0.207,-0.077l-0.206,-0.078l-0.207,-0.078l-0.206,-0.079l-0.206,-0.079l-0.205,-0.08l-0.205,-0.081l-0.205,-0.081l-0.205,-0.082l-0.204,-0.082l-0.204,-0.083l-0.204,-0.084l-0.203,-0.084l-0.203,-0.085l-0.203,-0.086l-0.202,-0.086l-0.202,-0.086l-0.202,-0.087l-0.201,-0.088l-0.202,-0.089l-0.2,-0.089l-0.201,-0.089l-0.2,-0.09l-0.2,-0.091l-0.199,-0.092l-0.2,-0.092l-0.198,-0.092l-0.199,-0.093l-0.198,-0.094l-0.198,-0.094l-0.198,-0.095l-0.197,-0.096l-0.197,-0.096l-0.196,-0.096l-0.197,-0.098l-0.196,-0.097l-0.195,-0.099l-0.195,-0.099l-0.195,-0.099l-0.195,-0.1l-0.194,-0.101l-0.194,-0.101l-0.193,-0.102l-0.193,-0.102l-0.193,-0.103l-0.193,-0.104l-0.192,-0.104l-0.192,-0.104l-0.191,-0.105l-0.191,-0.106l-0.191,-0.106l-0.19,-0.107l-0.19,-0.108l-0.19,-0.108l-0.189,-0.108l-0.189,-0.109l-0.189,-0.11l-0.188,-0.11l-0.188,-0.111l-0.187,-0.111l-0.187,-0.112l-0.187,-0.112l-0.186,-0.113l-0.186,-0.114l-0.186,-0.114l-0.185,-0.114l-0.185,-0.115l-0.185,-0.116l-0.184,-0.116l-0.184,-0.117l-0.183,-0.117l-0.183,-0.118l-0.183,-0.118l-0.182,-0.119l-0.182,-0.119l-0.182,-0.12l-0.181,-0.121l-0.181,-0.121l-0.18,-0.121l-0.18,-0.122l-0.18,-0.123l-0.179,-0.123l-0.179,-0.124l-0.178,-0.124l-0.178,-0.124l-0.178,-0.125l-0.177,-0.126l-0.177,-0.126l-0.176,-0.127l-0.176,-0.127l-0.176,-0.128l-0.175,-0.128l-0.175,-0.129l-0.175,-0.13l-0.174,-0.129l-0.174,-0.131l-0.173,-0.131l-0.173,-0.131l-0.172,-0.132l-0.172,-0.132l-0.172,-0.133l-0.171,-0.133l-0.171,-0.134l-0.17,-0.135l-0.17,-0.134l-0.17,-0.136l-0.169,-0.136l-0.169,-0.136l-0.168,-0.137l-0.168,-0.137l-0.168,-0.138l-0.167,-0.138l-0.166,-0.139l-0.167,-0.139l-0.165,-0.14l-0.166,-0.141l-0.165,-0.14l-0.164,-0.142l-0.164,-0.141l-0.164,-0.143l-0.163,-0.142l-0.163,-0.143l-0.163,-0.144l-0.161,-0.144l-0.162,-0.145l-0.161,-0.145l-0.161,-0.146l-0.16,-0.146l-0.16,-0.146l-0.159,-0.147l-0.159,-0.148l-0.158,-0.148l-0.158,-0.148l-0.158,-0.149l-0.157,-0.149l-0.157,-0.15l-0.156,-0.15l-0.155,-0.151l-0.156,-0.151l-0.155,-0.152l-0.154,-0.152l-0.154,-0.153l-0.153,-0.153l-0.153,-0.153l-0.153,-0.154l-0.152,-0.154l-0.152,-0.155l-0.151,-0.156l-0.151,-0.155l-0.15,-0.156l-0.15,-0.157l-0.149,-0.157l-0.149,-0.158l-0.148,-0.158l-0.148,-0.158l-0.148,-0.159l-0.147,-0.159l-0.146,-0.16l-0.146,-0.16l-0.146,-0.161l-0.145,-0.161l-0.145,-0.162l-0.144,-0.161l-0.144,-0.163l-0.143,-0.163l-0.142,-0.163l-0.143,-0.164l-0.141,-0.164l-0.142,-0.164l-0.14,-0.165l-0.141,-0.166l-0.14,-0.165l-0.139,-0.167l-0.139,-0.166l-0.138,-0.167l-0.138,-0.168l-0.137,-0.168l-0.137,-0.168l-0.136,-0.169l-0.136,-0.169l-0.136,-0.17l-0.134,-0.17l-0.135,-0.17l-0.134,-0.171l-0.133,-0.171l-0.133,-0.172l-0.132,-0.172l-0.132,-0.172l-0.131,-0.173l-0.131,-0.173l-0.131,-0.174l-0.129,-0.174l-0.13,-0.175l-0.129,-0.175l-0.128,-0.175l-0.128,-0.176l-0.127,-0.176l-0.127,-0.176l-0.126,-0.177l-0.126,-0.177l-0.125,-0.178l-0.124,-0.178l-0.124,-0.178l-0.124,-0.179l-0.123,-0.179l-0.123,-0.18l-0.122,-0.18l-0.121,-0.18l-0.121,-0.181l-0.121,-0.181l-0.12,-0.182l-0.119,-0.182l-0.119,-0.182l-0.118,-0.183l-0.118,-0.183l-0.117,-0.183l-0.117,-0.184l-0.116,-0.184l-0.116,-0.185l-0.115,-0.185l-0.114,-0.185l-0.114,-0.186l-0.114,-0.186l-0.113,-0.186l-0.112,-0.187l-0.112,-0.187l-0.111,-0.187l-0.111,-0.188l-0.11,-0.188l-0.11,-0.189l-0.109,-0.189l-0.108,-0.189l-0.108,-0.19l-0.108,-0.19l-0.107,-0.19l-0.106,-0.191l-0.106,-0.191l-0.105,-0.191l-0.104,-0.192l-0.104,-0.192l-0.104,-0.193l-0.103,-0.193l-0.102,-0.193l-0.102,-0.193l-0.101,-0.194l-0.101,-0.194l-0.1,-0.195l-0.099,-0.195l-0.099,-0.195l-0.099,-0.195l-0.097,-0.196l-0.098,-0.197l-0.096,-0.196l-0.096,-0.197l-0.096,-0.197l-0.095,-0.198l-0.094,-0.198l-0.094,-0.198l-0.093,-0.199l-0.092,-0.198l-0.092,-0.2l-0.092,-0.199l-0.091,-0.2l-0.09,-0.2l-0.089,-0.201l-0.089,-0.2l-0.089,-0.202l-0.088,-0.201l-0.087,-0.202l-0.086,-0.202l-0.086,-0.202l-0.086,-0.203l-0.085,-0.203l-0.084,-0.203l-0.084,-0.204l-0.083,-0.204l-0.082,-0.204l-0.082,-0.205l-0.081,-0.205l-0.081,-0.205l-0.08,-0.205l-0.079,-0.206l-0.079,-0.206l-0.078,-0.207l-0.078,-0.206l-0.077,-0.207l-0.076,-0.208l-0.076,-0.207l-0.075,-0.208l-0.074,-0.208l-0.074,-0.209l-0.073,-0.209l-0.073,-0.209l-0.072,-0.209l-0.071,-0.21l-0.071,-0.21l-0.07,-0.21l-0.07,-0.21l-0.068,-0.211l-0.069,-0.211l-0.067,-0.211l-0.067,-0.212l-0.066,-0.212l-0.066,-0.212l-0.065,-0.213l-0.065,-0.212l-0.063,-0.213l-0.064,-0.214l-0.062,-0.213l-0.062,-0.214l-0.061,-0.214l-0.061,-0.214l-0.06,-0.215l-0.059,-0.215l-0.059,-0.215l-0.058,-0.216l-0.057,-0.215l-0.057,-0.216l-0.056,-0.217l-0.055,-0.216l-0.055,-0.217l-0.054,-0.217l-0.053,-0.217l-0.053,-0.218l-0.052,-0.217l-0.052,-0.218l-0.051,-0.219l-0.05,-0.218l-0.049,-0.219l-0.049,-0.219l-0.048,-0.219l-0.048,-0.22l-0.046,-0.219l-0.047,-0.221l-0.045,-0.22l-0.045,-0.22l-0.044,-0.221l-0.043,-0.221l-0.043,-0.221l-0.042,-0.222l-0.042,-0.221l-0.041,-0.222l-0.04,-0.223l-0.039,-0.222l-0.039,-0.223l-0.038,-0.222l-0.037,-0.224l-0.037,-0.223l-0.036,-0.223l-0.035,-0.224l-0.035,-0.224l-0.034,-0.224l-0.033,-0.225l-0.033,-0.225l-0.032,-0.224l-0.031,-0.226l-0.03,-0.225l-0.03,-0.226l-0.029,-0.225l-0.028,-0.226l-0.028,-0.227l-0.027,-0.226l-0.026,-0.227l-0.026,-0.226l-0.025,-0.228l-0.024,-0.227l-0.024,-0.227l-0.022,-0.228l-0.023,-0.228l-0.021,-0.228l-0.021,-0.228l-0.02,-0.229l-0.019,-0.228l-0.018,-0.229l-0.018,-0.229l-0.017,-0.23l-0.017,-0.229l-0.015,-0.23l-0.015,-0.23l-0.015,-0.23l-0.013,-0.23l-0.013,-0.231l-0.012,-0.23l-0.011,-0.231l-0.011,-0.231l-0.01,-0.231l-0.009,-0.232l-0.008,-0.232l-0.008,-0.231l-0.007,-0.232l-0.006,-0.232l-0.006,-0.233l-0.005,-0.232l-0.004,-0.233l-0.003,-0.233l-0.003,-0.233l-0.002,-0.233l-0.001,-0.233l0,-0.234l0,-0.234l0.001,-0.233l0.002,-0.233l0.003,-0.233l0.003,-0.233l0.004,-0.233l0.005,-0.232l0.006,-0.233l0.006,-0.232l0.007,-0.232l0.008,-0.231l0.008,-0.232l0.009,-0.232l0.01,-0.231l0.011,-0.231l0.011,-0.231l0.012,-0.23l0.013,-0.231l0.013,-0.23l0.015,-0.23l0.015,-0.23l0.015,-0.23l0.017,-0.229l0.017,-0.23l0.018,-0.229l0.018,-0.229l0.019,-0.228l0.02,-0.229l0.021,-0.228l0.021,-0.228l0.023,-0.228l0.022,-0.228l0.024,-0.227l0.024,-0.227l0.025,-0.228l0.026,-0.226l0.026,-0.227l0.027,-0.226l0.028,-0.227l0.028,-0.226l0.029,-0.225l0.03,-0.226l0.03,-0.225l0.031,-0.226l0.032,-0.224l0.033,-0.225l0.033,-0.225l0.034,-0.224l0.035,-0.224l0.035,-0.224l0.036,-0.223l0.037,-0.223l0.037,-0.224l0.038,-0.222l0.039,-0.223l0.039,-0.222l0.04,-0.223l0.041,-0.222l0.042,-0.221l0.042,-0.222l0.043,-0.221l0.043,-0.221l0.044,-0.221l0.045,-0.22l0.045,-0.22l0.047,-0.221l0.046,-0.219l0.048,-0.22l0.048,-0.219l0.049,-0.219l0.049,-0.219l0.05,-0.218l0.051,-0.219l0.052,-0.218l0.052,-0.217l0.053,-0.218l0.053,-0.217l0.054,-0.217l0.055,-0.217l0.055,-0.216l0.056,-0.217l0.057,-0.216l0.057,-0.215l0.058,-0.216l0.059,-0.215l0.059,-0.215l0.06,-0.215l0.061,-0.214l0.061,-0.214l0.062,-0.214l0.062,-0.213l0.064,-0.214l0.063,-0.213l0.065,-0.212l0.065,-0.213l0.066,-0.212l0.066,-0.212l0.067,-0.212l0.067,-0.211l0.069,-0.211l0.068,-0.211l0.07,-0.21l0.07,-0.21l0.071,-0.21l0.071,-0.21l0.072,-0.209l0.073,-0.209l0.073,-0.209l0.074,-0.209l0.074,-0.208l0.075,-0.208l0.076,-0.207l0.076,-0.208l0.077,-0.207l0.078,-0.206l0.078,-0.207l0.079,-0.206l0.079,-0.206l0.08,-0.205l0.081,-0.205l0.081,-0.205l0.082,-0.205l0.082,-0.204l0.083,-0.204l0.084,-0.204l0.084,-0.203l0.085,-0.203l0.086,-0.203l0.086,-0.202l0.086,-0.202l0.087,-0.202l0.088,-0.201l0.089,-0.202l0.089,-0.2l0.089,-0.201l0.09,-0.2l0.091,-0.2l0.092,-0.199l0.092,-0.2l0.092,-0.198l0.093,-0.199l0.094,-0.198l0.094,-0.198l0.095,-0.198l0.096,-0.197l0.096,-0.197l0.096,-0.196l0.098,-0.197l0.097,-0.196l0.099,-0.195l0.099,-0.195l0.099,-0.195l0.1,-0.195l0.101,-0.194l0.101,-0.194l0.102,-0.193l0.102,-0.193l0.103,-0.193l0.104,-0.193l0.104,-0.192l0.104,-0.192l0.105,-0.191l0.106,-0.191l0.106,-0.191l0.107,-0.19l0.108,-0.19l0.108,-0.19l0.108,-0.189l0.109,-0.189l0.11,-0.189l0.11,-0.188l0.111,-0.188l0.111,-0.187l0.112,-0.187l0.112,-0.187l0.113,-0.186l0.114,-0.186l0.114,-0.186l0.114,-0.185l0.115,-0.185l0.116,-0.185l0.116,-0.184l0.117,-0.184l0.117,-0.183l0.118,-0.183l0.118,-0.183l0.119,-0.182l0.119,-0.182l0.12,-0.182l0.121,-0.181l0.121,-0.181l0.121,-0.18l0.122,-0.18l0.123,-0.18l0.123,-0.179l0.124,-0.179l0.124,-0.178l0.124,-0.178l0.125,-0.178l0.126,-0.177l0.126,-0.177l0.127,-0.176l0.127,-0.176l0.128,-0.176l0.128,-0.175l0.129,-0.175l0.13,-0.175l0.129,-0.174l0.131,-0.174l0.131,-0.173l0.131,-0.173l0.132,-0.172l0.132,-0.172l0.133,-0.172l0.133,-0.171l0.134,-0.171l0.135,-0.17l0.134,-0.17l0.136,-0.17l0.136,-0.169l0.136,-0.169l0.137,-0.168l0.137,-0.168l0.138,-0.168l0.138,-0.167l0.139,-0.166l0.139,-0.167l0.14,-0.165l0.141,-0.166l0.14,-0.165l0.142,-0.164l0.141,-0.164l0.143,-0.164l0.142,-0.163l0.143,-0.163l0.144,-0.163l0.144,-0.161l0.145,-0.162l0.145,-0.161l0.146,-0.161l0.146,-0.16l0.146,-0.16l0.147,-0.159l0.148,-0.159l0.148,-0.158l0.148,-0.158l0.149,-0.158l0.149,-0.157l0.15,-0.157l0.15,-0.156l0.151,-0.155l0.151,-0.156l0.152,-0.155l0.152,-0.154l0.153,-0.154l0.153,-0.153l0.153,-0.153l0.154,-0.153l0.154,-0.152l0.155,-0.152l0.156,-0.151l0.155,-0.151l0.156,-0.15l0.157,-0.15l0.157,-0.149l0.158,-0.149l0.158,-0.148l0.158,-0.148l0.159,-0.148l0.159,-0.147l0.16,-0.146l0.16,-0.146l0.161,-0.146l0.161,-0.145l0.162,-0.145l0.161,-0.144l0.163,-0.144l0.163,-0.143l0.163,-0.142l0.164,-0.143l0.164,-0.141l0.164,-0.142l0.165,-0.14l0.166,-0.141l0.165,-0.14l0.167,-0.139l0.166,-0.139l0.167,-0.138l0.168,-0.138l0.168,-0.137l0.168,-0.137l0.169,-0.136l0.169,-0.136l0.17,-0.136l0.17,-0.134l0.17,-0.135l0.171,-0.134l0.171,-0.133l0.172,-0.133l0.172,-0.132l0.172,-0.132l0.173,-0.131l0.173,-0.131l0.174,-0.131l0.174,-0.129l0.175,-0.13l0.175,-0.129l0.175,-0.128l0.176,-0.128l0.176,-0.127l0.176,-0.127l0.177,-0.126l0.177,-0.126l0.178,-0.125l0.178,-0.124l0.178,-0.124l0.179,-0.124l0.179,-0.123l0.18,-0.123l0.18,-0.122l0.18,-0.121l0.181,-0.121l0.181,-0.121l0.182,-0.12l0.182,-0.119l0.182,-0.119l0.183,-0.118l0.183,-0.118l0.183,-0.117l0.184,-0.117l0.184,-0.116l0.185,-0.116l0.185,-0.115l0.185,-0.114l0.186,-0.114l0.186,-0.114l0.186,-0.113l0.187,-0.112l0.187,-0.112l0.187,-0.111l0.188,-0.111l0.188,-0.11l0.189,-0.11l0.189,-0.109l0.189,-0.108l0.19,-0.108l0.19,-0.108l0.19,-0.107l0.191,-0.106l0.191,-0.106l0.191,-0.105l0.192,-0.104l0.192,-0.104l0.193,-0.104l0.193,-0.103l0.193,-0.102l0.193,-0.102l0.194,-0.101l0.194,-0.101l0.195,-0.1l0.195,-0.099l0.195,-0.099l0.195,-0.099l0.196,-0.097l0.197,-0.098l0.196,-0.096l0.197,-0.096l0.197,-0.096l0.198,-0.095l0.198,-0.094l0.198,-0.094l0.199,-0.093l0.198,-0.092l0.2,-0.092l0.199,-0.092l0.2,-0.091l0.2,-0.09l0.201,-0.089l0.2,-0.089l0.202,-0.089l0.201,-0.088l0.202,-0.087l0.202,-0.086l0.202,-0.086l0.203,-0.086l0.203,-0.085l0.203,-0.084l0.204,-0.084l0.204,-0.083l0.204,-0.082l0.205,-0.082l0.205,-0.081l0.205,-0.081l0.205,-0.08l0.206,-0.079l0.206,-0.079l0.207,-0.078l0.206,-0.078l0.207,-0.077l0.208,-0.076l0.207,-0.076l0.208,-0.075l0.208,-0.074l0.209,-0.074l0.209,-0.073l0.209,-0.073l0.209,-0.072l0.21,-0.071l0.21,-0.071l0.21,-0.07l0.21,-0.07l0.211,-0.068l0.211,-0.069l0.211,-0.067l0.212,-0.067l0.212,-0.066l0.212,-0.066l0.213,-0.065l0.212,-0.065l0.213,-0.063l0.214,-0.064l0.213,-0.062l0.214,-0.062l0.214,-0.061l0.214,-0.061l0.215,-0.06l0.215,-0.059l0.215,-0.059l0.216,-0.058l0.215,-0.057l0.216,-0.057l0.217,-0.056l0.216,-0.055l0.217,-0.055l0.217,-0.054l0.217,-0.053l0.218,-0.053l0.217,-0.052l0.218,-0.052l0.219,-0.051l0.218,-0.05l0.219,-0.049l0.219,-0.049l0.219,-0.048l0.22,-0.048l0.219,-0.046l0.221,-0.047l0.22,-0.045l0.22,-0.045l0.221,-0.044l0.221,-0.043l0.221,-0.043l0.222,-0.042l0.221,-0.042l0.222,-0.041l0.223,-0.04l0.222,-0.039l0.223,-0.039l0.222,-0.038l0.224,-0.037l0.223,-0.037l0.223,-0.036l0.224,-0.035l0.224,-0.035l0.224,-0.034l0.225,-0.033l0.225,-0.033l0.224,-0.032l0.226,-0.031l0.225,-0.03l0.226,-0.03l0.225,-0.029l0.226,-0.028l0.227,-0.028l0.226,-0.027l0.227,-0.026l0.226,-0.026l0.228,-0.025l0.227,-0.024l0.227,-0.024l0.228,-0.022l0.228,-0.023l0.228,-0.021l0.228,-0.021l0.229,-0.02l0.228,-0.019l0.229,-0.018l0.229,-0.018l0.23,-0.017l0.229,-0.017l0.23,-0.015l0.23,-0.015l0.23,-0.015l0.23,-0.013l0.231,-0.013l0.23,-0.012l0.231,-0.011l0.231,-0.011l0.231,-0.01l0.232,-0.009l0.232,-0.008l0.231,-0.008l0.232,-0.007l0.232,-0.006l0.233,-0.006l0.232,-0.005l0.233,-0.004l0.233,-0.003l0.233,-0.003l0.233,-0.002l0.233,-0.001l0.234,0l0.234,0Zm-0.444,7.5l-0.209,0.001l-0.21,0.002l-0.209,0.002l-0.209,0.003l-0.209,0.004l-0.209,0.004l-0.208,0.005l-0.209,0.006l-0.208,0.006l-0.208,0.007l-0.208,0.008l-0.207,0.008l-0.208,0.009l-0.207,0.009l-0.207,0.01l-0.207,0.011l-0.207,0.012l-0.207,0.012l-0.206,0.013l-0.206,0.013l-0.206,0.014l-0.206,0.015l-0.206,0.015l-0.205,0.016l-0.205,0.017l-0.206,0.017l-0.204,0.018l-0.205,0.018l-0.205,0.02l-0.204,0.019l-0.204,0.021l-0.204,0.021l-0.204,0.022l-0.203,0.022l-0.203,0.023l-0.204,0.023l-0.203,0.025l-0.202,0.024l-0.203,0.026l-0.202,0.026l-0.202,0.027l-0.202,0.027l-0.202,0.028l-0.201,0.029l-0.202,0.029l-0.201,0.029l-0.201,0.031l-0.2,0.031l-0.201,0.032l-0.2,0.032l-0.2,0.033l-0.2,0.033l-0.2,0.034l-0.199,0.035l-0.199,0.035l-0.199,0.036l-0.199,0.037l-0.199,0.037l-0.198,0.037l-0.198,0.039l-0.198,0.039l-0.198,0.039l-0.197,0.04l-0.197,0.041l-0.197,0.041l-0.197,0.042l-0.197,0.043l-0.196,0.043l-0.196,0.044l-0.196,0.044l-0.196,0.045l-0.195,0.045l-0.195,0.046l-0.195,0.047l-0.195,0.047l-0.195,0.048l-0.194,0.049l-0.194,0.049l-0.194,0.049l-0.194,0.05l-0.193,0.051l-0.193,0.052l-0.193,0.051l-0.193,0.053l-0.192,0.053l-0.192,0.054l-0.192,0.054l-0.192,0.055l-0.191,0.055l-0.191,0.056l-0.191,0.057l-0.191,0.057l-0.191,0.057l-0.19,0.059l-0.19,0.059l-0.189,0.059l-0.19,0.06l-0.189,0.06l-0.189,0.061l-0.189,0.062l-0.188,0.062l-0.188,0.063l-0.188,0.063l-0.188,0.064l-0.188,0.065l-0.187,0.065l-0.187,0.065l-0.186,0.066l-0.187,0.067l-0.186,0.067l-0.186,0.068l-0.185,0.069l-0.186,0.068l-0.185,0.07l-0.185,0.07l-0.184,0.07l-0.184,0.071l-0.184,0.072l-0.184,0.072l-0.184,0.073l-0.183,0.073l-0.183,0.074l-0.182,0.074l-0.183,0.075l-0.182,0.076l-0.182,0.076l-0.181,0.076l-0.182,0.077l-0.181,0.078l-0.18,0.078l-0.181,0.079l-0.18,0.079l-0.18,0.08l-0.179,0.08l-0.18,0.081l-0.179,0.081l-0.178,0.082l-0.179,0.082l-0.178,0.083l-0.178,0.084l-0.177,0.083l-0.177,0.085l-0.177,0.085l-0.177,0.085l-0.176,0.086l-0.177,0.087l-0.175,0.087l-0.176,0.088l-0.175,0.088l-0.175,0.088l-0.175,0.09l-0.174,0.089l-0.174,0.09l-0.173,0.091l-0.174,0.091l-0.173,0.092l-0.173,0.092l-0.172,0.093l-0.172,0.093l-0.172,0.094l-0.172,0.094l-0.171,0.095l-0.171,0.095l-0.17,0.096l-0.171,0.096l-0.169,0.097l-0.17,0.097l-0.169,0.098l-0.169,0.098l-0.169,0.099l-0.168,0.099l-0.168,0.1l-0.168,0.1l-0.168,0.101l-0.167,0.101l-0.166,0.102l-0.167,0.102l-0.166,0.102l-0.166,0.104l-0.165,0.103l-0.165,0.104l-0.165,0.105l-0.164,0.105l-0.164,0.106l-0.164,0.106l-0.163,0.106l-0.163,0.107l-0.163,0.108l-0.163,0.108l-0.162,0.108l-0.161,0.109l-0.162,0.11l-0.161,0.109l-0.16,0.111l-0.161,0.111l-0.16,0.111l-0.159,0.112l-0.16,0.112l-0.159,0.113l-0.158,0.113l-0.158,0.113l-0.158,0.115l-0.158,0.114l-0.157,0.115l-0.157,0.116l-0.156,0.116l-0.156,0.116l-0.156,0.117l-0.155,0.117l-0.155,0.118l-0.155,0.118l-0.154,0.119l-0.154,0.119l-0.154,0.12l-0.153,0.12l-0.153,0.12l-0.152,0.121l-0.152,0.121l-0.152,0.122l-0.152,0.123l-0.15,0.122l-0.151,0.124l-0.15,0.123l-0.15,0.124l-0.15,0.125l-0.149,0.125l-0.148,0.125l-0.149,0.126l-0.148,0.126l-0.147,0.127l-0.147,0.127l-0.147,0.127l-0.147,0.128l-0.146,0.129l-0.145,0.129l-0.146,0.129l-0.144,0.13l-0.145,0.13l-0.144,0.13l-0.144,0.131l-0.143,0.132l-0.143,0.132l-0.142,0.132l-0.142,0.133l-0.142,0.133l-0.142,0.133l-0.14,0.134l-0.141,0.135l-0.14,0.134l-0.14,0.136l-0.139,0.135l-0.139,0.136l-0.138,0.137l-0.139,0.137l-0.137,0.137l-0.137,0.137l-0.137,0.139l-0.137,0.138l-0.136,0.139l-0.135,0.139l-0.136,0.14l-0.134,0.14l-0.135,0.141l-0.134,0.141l-0.133,0.141l-0.133,0.142l-0.133,0.142l-0.132,0.142l-0.132,0.143l-0.132,0.143l-0.131,0.144l-0.13,0.144l-0.13,0.145l-0.13,0.144l-0.129,0.146l-0.129,0.145l-0.129,0.146l-0.128,0.147l-0.127,0.147l-0.127,0.147l-0.127,0.147l-0.126,0.148l-0.126,0.149l-0.125,0.148l-0.125,0.149l-0.125,0.15l-0.124,0.15l-0.123,0.15l-0.124,0.151l-0.122,0.15l-0.123,0.152l-0.122,0.152l-0.121,0.152l-0.121,0.152l-0.12,0.153l-0.12,0.153l-0.12,0.154l-0.119,0.154l-0.119,0.154l-0.118,0.155l-0.118,0.155l-0.117,0.155l-0.117,0.156l-0.116,0.156l-0.116,0.156l-0.116,0.157l-0.115,0.157l-0.114,0.158l-0.115,0.158l-0.113,0.158l-0.113,0.158l-0.113,0.159l-0.112,0.16l-0.112,0.159l-0.111,0.16l-0.111,0.161l-0.111,0.16l-0.109,0.161l-0.11,0.162l-0.109,0.161l-0.108,0.162l-0.108,0.163l-0.108,0.163l-0.107,0.163l-0.106,0.163l-0.106,0.164l-0.106,0.164l-0.105,0.164l-0.105,0.165l-0.104,0.165l-0.103,0.165l-0.104,0.166l-0.102,0.166l-0.102,0.167l-0.102,0.166l-0.101,0.167l-0.101,0.168l-0.1,0.168l-0.1,0.168l-0.099,0.168l-0.099,0.169l-0.098,0.169l-0.098,0.169l-0.097,0.17l-0.097,0.169l-0.096,0.171l-0.096,0.17l-0.095,0.171l-0.095,0.171l-0.094,0.172l-0.094,0.172l-0.093,0.172l-0.093,0.172l-0.092,0.173l-0.092,0.173l-0.091,0.174l-0.091,0.173l-0.09,0.174l-0.089,0.174l-0.09,0.175l-0.088,0.175l-0.088,0.175l-0.088,0.176l-0.087,0.175l-0.087,0.177l-0.086,0.176l-0.085,0.177l-0.085,0.177l-0.085,0.177l-0.083,0.177l-0.084,0.178l-0.083,0.178l-0.082,0.179l-0.082,0.178l-0.081,0.179l-0.081,0.18l-0.08,0.179l-0.08,0.18l-0.079,0.18l-0.079,0.181l-0.078,0.18l-0.078,0.181l-0.077,0.182l-0.076,0.181l-0.076,0.182l-0.076,0.182l-0.075,0.183l-0.074,0.182l-0.074,0.183l-0.073,0.183l-0.073,0.184l-0.072,0.184l-0.072,0.184l-0.071,0.184l-0.07,0.184l-0.07,0.185l-0.07,0.185l-0.068,0.186l-0.069,0.185l-0.068,0.186l-0.067,0.186l-0.067,0.187l-0.066,0.186l-0.065,0.187l-0.065,0.187l-0.065,0.188l-0.064,0.188l-0.063,0.188l-0.063,0.188l-0.062,0.188l-0.062,0.189l-0.061,0.189l-0.06,0.189l-0.06,0.19l-0.059,0.189l-0.059,0.19l-0.059,0.19l-0.057,0.191l-0.057,0.191l-0.057,0.191l-0.056,0.191l-0.055,0.191l-0.055,0.192l-0.054,0.192l-0.054,0.192l-0.053,0.192l-0.053,0.193l-0.051,0.193l-0.052,0.193l-0.051,0.193l-0.05,0.194l-0.049,0.194l-0.049,0.194l-0.049,0.194l-0.048,0.195l-0.047,0.195l-0.047,0.195l-0.046,0.195l-0.045,0.195l-0.045,0.196l-0.044,0.196l-0.044,0.196l-0.043,0.196l-0.043,0.197l-0.042,0.197l-0.041,0.197l-0.041,0.197l-0.04,0.197l-0.039,0.198l-0.039,0.198l-0.039,0.198l-0.037,0.198l-0.037,0.199l-0.037,0.199l-0.036,0.199l-0.035,0.199l-0.035,0.199l-0.034,0.2l-0.033,0.2l-0.033,0.2l-0.032,0.2l-0.032,0.201l-0.031,0.2l-0.031,0.201l-0.029,0.201l-0.029,0.202l-0.029,0.201l-0.028,0.202l-0.027,0.202l-0.027,0.202l-0.026,0.202l-0.026,0.203l-0.024,0.202l-0.025,0.203l-0.023,0.204l-0.023,0.203l-0.022,0.203l-0.022,0.204l-0.021,0.204l-0.021,0.204l-0.019,0.204l-0.02,0.205l-0.018,0.205l-0.018,0.204l-0.017,0.206l-0.017,0.205l-0.016,0.205l-0.015,0.206l-0.015,0.206l-0.014,0.206l-0.013,0.206l-0.013,0.206l-0.012,0.207l-0.012,0.207l-0.011,0.207l-0.01,0.207l-0.009,0.207l-0.009,0.208l-0.008,0.207l-0.008,0.208l-0.007,0.208l-0.006,0.208l-0.006,0.209l-0.005,0.208l-0.004,0.209l-0.004,0.209l-0.003,0.209l-0.002,0.209l-0.002,0.21l-0.001,0.209l0,0.21l0,0.21l0.001,0.209l0.002,0.21l0.002,0.209l0.003,0.209l0.004,0.209l0.004,0.209l0.005,0.208l0.006,0.209l0.006,0.208l0.007,0.208l0.008,0.208l0.008,0.207l0.009,0.208l0.009,0.207l0.01,0.207l0.011,0.207l0.012,0.207l0.012,0.207l0.013,0.206l0.013,0.206l0.014,0.206l0.015,0.206l0.015,0.206l0.016,0.205l0.017,0.205l0.017,0.206l0.018,0.204l0.018,0.205l0.02,0.205l0.019,0.204l0.021,0.204l0.021,0.204l0.022,0.204l0.022,0.203l0.023,0.203l0.023,0.204l0.025,0.203l0.024,0.202l0.026,0.203l0.026,0.202l0.027,0.202l0.027,0.202l0.028,0.202l0.029,0.201l0.029,0.202l0.029,0.201l0.031,0.201l0.031,0.2l0.032,0.201l0.032,0.2l0.033,0.2l0.033,0.2l0.034,0.2l0.035,0.199l0.035,0.199l0.036,0.199l0.037,0.199l0.037,0.199l0.037,0.198l0.039,0.198l0.039,0.198l0.039,0.198l0.04,0.197l0.041,0.197l0.041,0.197l0.042,0.197l0.043,0.197l0.043,0.196l0.044,0.196l0.044,0.196l0.045,0.196l0.045,0.195l0.046,0.195l0.047,0.195l0.047,0.195l0.048,0.195l0.049,0.194l0.049,0.194l0.049,0.194l0.05,0.194l0.051,0.193l0.052,0.193l0.051,0.193l0.053,0.193l0.053,0.192l0.054,0.192l0.054,0.192l0.055,0.192l0.055,0.191l0.056,0.191l0.057,0.191l0.057,0.191l0.057,0.191l0.059,0.19l0.059,0.19l0.059,0.189l0.06,0.19l0.06,0.189l0.061,0.189l0.062,0.189l0.062,0.188l0.063,0.188l0.063,0.188l0.064,0.188l0.065,0.188l0.065,0.187l0.065,0.187l0.066,0.186l0.067,0.187l0.067,0.186l0.068,0.186l0.069,0.185l0.068,0.186l0.07,0.185l0.07,0.185l0.07,0.184l0.071,0.184l0.072,0.184l0.072,0.184l0.073,0.184l0.073,0.183l0.074,0.183l0.074,0.182l0.075,0.183l0.076,0.182l0.076,0.182l0.076,0.181l0.077,0.182l0.078,0.181l0.078,0.18l0.079,0.181l0.079,0.18l0.08,0.18l0.08,0.179l0.081,0.18l0.081,0.179l0.082,0.178l0.082,0.179l0.083,0.178l0.084,0.178l0.083,0.177l0.085,0.177l0.085,0.177l0.085,0.177l0.086,0.176l0.087,0.177l0.087,0.175l0.088,0.176l0.088,0.175l0.088,0.175l0.09,0.175l0.089,0.174l0.09,0.174l0.091,0.173l0.091,0.174l0.092,0.173l0.092,0.173l0.093,0.172l0.093,0.172l0.094,0.172l0.094,0.172l0.095,0.171l0.095,0.171l0.096,0.17l0.096,0.171l0.097,0.169l0.097,0.17l0.098,0.169l0.098,0.169l0.099,0.169l0.099,0.168l0.1,0.168l0.1,0.168l0.101,0.168l0.101,0.167l0.102,0.166l0.102,0.167l0.102,0.166l0.104,0.166l0.103,0.165l0.104,0.165l0.105,0.165l0.105,0.164l0.106,0.164l0.106,0.164l0.106,0.163l0.107,0.164l0.108,0.162l0.108,0.163l0.108,0.162l0.109,0.161l0.11,0.162l0.109,0.161l0.111,0.16l0.111,0.161l0.111,0.16l0.112,0.159l0.112,0.16l0.113,0.159l0.113,0.158l0.113,0.158l0.115,0.158l0.114,0.158l0.115,0.157l0.116,0.157l0.116,0.156l0.116,0.156l0.117,0.156l0.117,0.155l0.118,0.155l0.118,0.155l0.119,0.155l0.119,0.153l0.12,0.154l0.12,0.153l0.12,0.153l0.121,0.152l0.121,0.152l0.122,0.152l0.123,0.152l0.122,0.15l0.123,0.151l0.124,0.15l0.124,0.15l0.125,0.15l0.125,0.149l0.125,0.148l0.126,0.149l0.126,0.148l0.127,0.147l0.127,0.147l0.127,0.147l0.129,0.147l0.128,0.146l0.129,0.145l0.129,0.146l0.13,0.144l0.13,0.145l0.13,0.144l0.132,0.144l0.131,0.143l0.132,0.143l0.132,0.142l0.133,0.142l0.133,0.142l0.133,0.141l0.134,0.141l0.135,0.141l0.134,0.14l0.136,0.14l0.135,0.139l0.136,0.139l0.137,0.138l0.137,0.138l0.137,0.138l0.138,0.137l0.138,0.137l0.138,0.137l0.139,0.136l0.139,0.135l0.14,0.136l0.14,0.134l0.141,0.135l0.141,0.134l0.141,0.133l0.142,0.133l0.142,0.133l0.142,0.132l0.143,0.132l0.143,0.131l0.144,0.132l0.144,0.13l0.144,0.13l0.145,0.13l0.146,0.129l0.145,0.129l0.146,0.129l0.147,0.127l0.146,0.128l0.148,0.127l0.147,0.127l0.148,0.126l0.149,0.126l0.148,0.125l0.149,0.125l0.15,0.125l0.15,0.124l0.15,0.124l0.151,0.123l0.15,0.122l0.152,0.123l0.152,0.122l0.152,0.121l0.152,0.121l0.153,0.12l0.153,0.12l0.154,0.12l0.154,0.119l0.154,0.119l0.155,0.118l0.155,0.118l0.155,0.117l0.156,0.117l0.156,0.116l0.156,0.116l0.157,0.116l0.157,0.115l0.158,0.114l0.158,0.115l0.158,0.113l0.158,0.113l0.159,0.113l0.16,0.112l0.159,0.112l0.16,0.111l0.161,0.111l0.16,0.11l0.161,0.11l0.162,0.11l0.161,0.109l0.162,0.108l0.163,0.108l0.162,0.108l0.164,0.107l0.163,0.106l0.164,0.106l0.164,0.106l0.164,0.105l0.165,0.105l0.165,0.104l0.165,0.103l0.166,0.104l0.166,0.102l0.167,0.102l0.167,0.102l0.167,0.101l0.167,0.101l0.167,0.1l0.169,0.1l0.168,0.099l0.169,0.099l0.169,0.098l0.169,0.098l0.17,0.097l0.169,0.097l0.171,0.096l0.17,0.096l0.171,0.095l0.172,0.095l0.171,0.094l0.172,0.094l0.172,0.093l0.172,0.093l0.173,0.092l0.173,0.092l0.173,0.091l0.174,0.091l0.174,0.09l0.174,0.089l0.175,0.09l0.175,0.088l0.175,0.088l0.176,0.088l0.176,0.087l0.176,0.087l0.176,0.085l0.177,0.086l0.177,0.085l0.177,0.085l0.177,0.083l0.178,0.084l0.178,0.083l0.179,0.082l0.178,0.082l0.179,0.081l0.18,0.081l0.179,0.08l0.18,0.08l0.18,0.079l0.181,0.079l0.18,0.078l0.181,0.078l0.182,0.077l0.181,0.076l0.182,0.076l0.182,0.076l0.182,0.074l0.183,0.075l0.183,0.074l0.183,0.073l0.184,0.073l0.184,0.072l0.184,0.072l0.184,0.071l0.184,0.07l0.185,0.07l0.185,0.07l0.186,0.069l0.185,0.068l0.186,0.068l0.186,0.067l0.187,0.067l0.186,0.066l0.187,0.065l0.187,0.065l0.188,0.065l0.188,0.064l0.188,0.063l0.188,0.063l0.188,0.062l0.189,0.062l0.189,0.061l0.189,0.06l0.19,0.06l0.189,0.059l0.19,0.059l0.191,0.059l0.19,0.057l0.191,0.057l0.191,0.057l0.191,0.056l0.191,0.055l0.192,0.055l0.192,0.054l0.192,0.054l0.192,0.053l0.193,0.052l0.193,0.052l0.193,0.052l0.194,0.051l0.193,0.05l0.194,0.049l0.194,0.049l0.194,0.049l0.195,0.048l0.195,0.047l0.195,0.047l0.195,0.046l0.195,0.045l0.196,0.045l0.196,0.044l0.196,0.044l0.196,0.043l0.197,0.043l0.197,0.042l0.197,0.041l0.197,0.041l0.198,0.04l0.197,0.039l0.198,0.039l0.198,0.039l0.199,0.037l0.198,0.037l0.199,0.037l0.199,0.036l0.199,0.035l0.199,0.035l0.2,0.034l0.2,0.033l0.2,0.033l0.2,0.032l0.201,0.032l0.2,0.031l0.201,0.03l0.201,0.03l0.202,0.029l0.201,0.029l0.202,0.028l0.202,0.027l0.202,0.027l0.202,0.026l0.203,0.026l0.202,0.024l0.203,0.025l0.204,0.023l0.203,0.023l0.203,0.022l0.204,0.022l0.204,0.021l0.204,0.021l0.204,0.019l0.205,0.02l0.205,0.018l0.204,0.018l0.206,0.017l0.205,0.017l0.205,0.016l0.206,0.015l0.206,0.015l0.206,0.014l0.206,0.013l0.206,0.013l0.207,0.012l0.207,0.012l0.207,0.011l0.207,0.01l0.207,0.009l0.208,0.009l0.207,0.008l0.208,0.008l0.208,0.007l0.208,0.006l0.209,0.006l0.208,0.005l0.209,0.004l0.209,0.004l0.209,0.003l0.209,0.002l0.21,0.002l0.209,0.001l0.21,0l0.21,0l0.209,-0.001l0.21,-0.002l0.209,-0.002l0.209,-0.003l0.209,-0.004l0.209,-0.004l0.208,-0.005l0.209,-0.006l0.208,-0.006l0.208,-0.007l0.208,-0.008l0.207,-0.008l0.208,-0.009l0.207,-0.009l0.207,-0.01l0.207,-0.011l0.207,-0.012l0.207,-0.012l0.206,-0.013l0.206,-0.013l0.206,-0.014l0.206,-0.015l0.206,-0.015l0.205,-0.016l0.205,-0.017l0.206,-0.017l0.204,-0.018l0.205,-0.018l0.205,-0.02l0.204,-0.019l0.204,-0.021l0.204,-0.021l0.204,-0.022l0.203,-0.022l0.203,-0.023l0.204,-0.023l0.203,-0.025l0.202,-0.024l0.203,-0.026l0.202,-0.026l0.202,-0.027l0.202,-0.027l0.202,-0.028l0.201,-0.029l0.202,-0.029l0.201,-0.03l0.201,-0.03l0.2,-0.031l0.201,-0.032l0.2,-0.032l0.2,-0.033l0.2,-0.033l0.2,-0.034l0.199,-0.035l0.199,-0.035l0.199,-0.036l0.199,-0.037l0.198,-0.037l0.199,-0.037l0.198,-0.039l0.198,-0.039l0.197,-0.039l0.198,-0.04l0.197,-0.041l0.197,-0.041l0.197,-0.042l0.197,-0.043l0.196,-0.043l0.196,-0.044l0.196,-0.044l0.196,-0.045l0.195,-0.045l0.195,-0.046l0.195,-0.047l0.195,-0.047l0.195,-0.048l0.194,-0.049l0.194,-0.049l0.194,-0.049l0.193,-0.05l0.194,-0.051l0.193,-0.052l0.193,-0.052l0.193,-0.052l0.192,-0.053l0.192,-0.054l0.192,-0.054l0.192,-0.055l0.191,-0.055l0.191,-0.056l0.191,-0.057l0.191,-0.057l0.19,-0.057l0.191,-0.059l0.19,-0.059l0.189,-0.059l0.19,-0.06l0.189,-0.06l0.189,-0.061l0.189,-0.062l0.188,-0.062l0.188,-0.063l0.188,-0.063l0.188,-0.064l0.188,-0.065l0.187,-0.065l0.187,-0.065l0.186,-0.066l0.187,-0.067l0.186,-0.067l0.186,-0.068l0.185,-0.068l0.186,-0.069l0.185,-0.07l0.185,-0.07l0.184,-0.07l0.184,-0.071l0.184,-0.072l0.184,-0.072l0.184,-0.073l0.183,-0.073l0.183,-0.074l0.183,-0.075l0.182,-0.074l0.182,-0.076l0.182,-0.076l0.181,-0.076l0.182,-0.077l0.181,-0.078l0.18,-0.078l0.181,-0.079l0.18,-0.079l0.18,-0.08l0.179,-0.08l0.179,-0.081l0.18,-0.081l0.178,-0.082l0.179,-0.082l0.178,-0.083l0.178,-0.084l0.177,-0.083l0.177,-0.085l0.177,-0.085l0.177,-0.086l0.176,-0.085l0.176,-0.087l0.176,-0.087l0.176,-0.088l0.175,-0.088l0.175,-0.088l0.175,-0.09l0.174,-0.089l0.174,-0.09l0.173,-0.091l0.174,-0.091l0.173,-0.092l0.173,-0.092l0.172,-0.093l0.172,-0.093l0.172,-0.094l0.171,-0.094l0.172,-0.095l0.171,-0.095l0.17,-0.096l0.171,-0.096l0.169,-0.097l0.17,-0.097l0.17,-0.098l0.168,-0.098l0.169,-0.099l0.168,-0.099l0.168,-0.1l0.168,-0.1l0.168,-0.101l0.166,-0.101l0.167,-0.102l0.167,-0.102l0.166,-0.102l0.166,-0.104l0.165,-0.103l0.165,-0.104l0.165,-0.105l0.164,-0.105l0.164,-0.106l0.164,-0.106l0.163,-0.106l0.164,-0.107l0.162,-0.108l0.163,-0.108l0.162,-0.108l0.161,-0.109l0.162,-0.11l0.161,-0.109l0.16,-0.111l0.161,-0.111l0.16,-0.111l0.159,-0.112l0.16,-0.112l0.159,-0.113l0.158,-0.113l0.158,-0.113l0.158,-0.115l0.158,-0.114l0.157,-0.115l0.157,-0.116l0.156,-0.116l0.156,-0.116l0.156,-0.117l0.155,-0.117l0.155,-0.118l0.155,-0.118l0.154,-0.119l0.154,-0.119l0.154,-0.12l0.153,-0.12l0.153,-0.12l0.152,-0.121l0.152,-0.121l0.152,-0.122l0.152,-0.123l0.15,-0.122l0.151,-0.123l0.15,-0.124l0.15,-0.124l0.15,-0.125l0.149,-0.125l0.148,-0.125l0.149,-0.126l0.148,-0.126l0.147,-0.127l0.147,-0.127l0.147,-0.128l0.147,-0.127l0.146,-0.129l0.145,-0.129l0.146,-0.129l0.145,-0.13l0.144,-0.13l0.144,-0.13l0.144,-0.132l0.143,-0.131l0.143,-0.132l0.142,-0.132l0.142,-0.133l0.142,-0.133l0.141,-0.133l0.141,-0.134l0.141,-0.135l0.14,-0.134l0.14,-0.136l0.139,-0.135l0.139,-0.136l0.138,-0.137l0.138,-0.137l0.138,-0.137l0.137,-0.138l0.137,-0.138l0.137,-0.138l0.136,-0.139l0.135,-0.139l0.136,-0.14l0.134,-0.14l0.135,-0.141l0.134,-0.141l0.133,-0.141l0.133,-0.142l0.133,-0.142l0.132,-0.142l0.132,-0.143l0.131,-0.143l0.132,-0.144l0.13,-0.144l0.13,-0.144l0.13,-0.145l0.129,-0.146l0.129,-0.145l0.129,-0.146l0.127,-0.147l0.128,-0.147l0.127,-0.147l0.127,-0.147l0.126,-0.148l0.126,-0.149l0.125,-0.148l0.125,-0.149l0.125,-0.15l0.124,-0.15l0.124,-0.15l0.123,-0.151l0.122,-0.15l0.123,-0.152l0.122,-0.152l0.121,-0.152l0.121,-0.152l0.12,-0.153l0.12,-0.153l0.12,-0.154l0.119,-0.153l0.119,-0.155l0.118,-0.155l0.118,-0.155l0.117,-0.155l0.117,-0.156l0.116,-0.156l0.116,-0.156l0.116,-0.157l0.115,-0.157l0.114,-0.158l0.115,-0.158l0.113,-0.158l0.113,-0.158l0.113,-0.159l0.112,-0.16l0.112,-0.159l0.111,-0.16l0.111,-0.161l0.111,-0.16l0.109,-0.161l0.11,-0.162l0.109,-0.161l0.108,-0.162l0.108,-0.163l0.108,-0.162l0.107,-0.164l0.106,-0.163l0.106,-0.164l0.106,-0.164l0.105,-0.164l0.105,-0.165l0.104,-0.165l0.103,-0.165l0.104,-0.166l0.102,-0.166l0.102,-0.167l0.102,-0.167l0.101,-0.166l0.101,-0.168l0.1,-0.168l0.1,-0.168l0.099,-0.168l0.099,-0.169l0.098,-0.168l0.098,-0.17l0.097,-0.17l0.097,-0.169l0.096,-0.171l0.096,-0.17l0.095,-0.171l0.095,-0.172l0.094,-0.171l0.094,-0.172l0.093,-0.172l0.093,-0.172l0.092,-0.173l0.092,-0.173l0.091,-0.174l0.091,-0.173l0.09,-0.174l0.089,-0.174l0.09,-0.175l0.088,-0.175l0.088,-0.175l0.088,-0.176l0.087,-0.176l0.087,-0.176l0.085,-0.176l0.086,-0.177l0.085,-0.177l0.085,-0.177l0.083,-0.177l0.084,-0.178l0.083,-0.178l0.082,-0.179l0.082,-0.178l0.081,-0.18l0.081,-0.179l0.08,-0.179l0.08,-0.18l0.079,-0.18l0.079,-0.181l0.078,-0.18l0.078,-0.181l0.077,-0.182l0.076,-0.181l0.076,-0.182l0.076,-0.182l0.074,-0.182l0.075,-0.183l0.074,-0.183l0.073,-0.183l0.073,-0.184l0.072,-0.184l0.072,-0.184l0.071,-0.184l0.07,-0.184l0.07,-0.185l0.07,-0.185l0.069,-0.186l0.068,-0.185l0.068,-0.186l0.067,-0.186l0.067,-0.187l0.066,-0.186l0.065,-0.187l0.065,-0.187l0.065,-0.188l0.064,-0.188l0.063,-0.188l0.063,-0.188l0.062,-0.188l0.062,-0.189l0.061,-0.189l0.06,-0.189l0.06,-0.19l0.059,-0.189l0.059,-0.19l0.059,-0.191l0.057,-0.19l0.057,-0.191l0.057,-0.191l0.056,-0.191l0.055,-0.191l0.055,-0.192l0.054,-0.192l0.054,-0.192l0.053,-0.192l0.052,-0.193l0.052,-0.193l0.052,-0.193l0.051,-0.194l0.05,-0.193l0.049,-0.194l0.049,-0.194l0.049,-0.194l0.048,-0.195l0.047,-0.195l0.047,-0.195l0.046,-0.195l0.045,-0.195l0.045,-0.196l0.044,-0.196l0.044,-0.196l0.043,-0.196l0.043,-0.197l0.042,-0.197l0.041,-0.197l0.041,-0.197l0.04,-0.198l0.039,-0.197l0.039,-0.198l0.039,-0.198l0.037,-0.199l0.037,-0.198l0.037,-0.199l0.036,-0.199l0.035,-0.199l0.035,-0.199l0.034,-0.2l0.033,-0.2l0.033,-0.2l0.032,-0.2l0.032,-0.201l0.031,-0.2l0.03,-0.201l0.03,-0.201l0.029,-0.202l0.029,-0.201l0.028,-0.202l0.027,-0.202l0.027,-0.202l0.026,-0.202l0.026,-0.203l0.024,-0.202l0.025,-0.203l0.023,-0.204l0.023,-0.203l0.022,-0.203l0.022,-0.204l0.021,-0.204l0.021,-0.204l0.019,-0.204l0.02,-0.205l0.018,-0.205l0.018,-0.204l0.017,-0.206l0.017,-0.205l0.016,-0.205l0.015,-0.206l0.015,-0.206l0.014,-0.206l0.013,-0.206l0.013,-0.206l0.012,-0.207l0.012,-0.207l0.011,-0.207l0.01,-0.207l0.009,-0.207l0.009,-0.208l0.008,-0.207l0.008,-0.208l0.007,-0.208l0.006,-0.208l0.006,-0.209l0.005,-0.208l0.004,-0.209l0.004,-0.209l0.003,-0.209l0.002,-0.209l0.002,-0.21l0.001,-0.209l0,-0.21l0,-0.21l-0.001,-0.209l-0.002,-0.21l-0.002,-0.209l-0.003,-0.209l-0.004,-0.209l-0.004,-0.209l-0.005,-0.208l-0.006,-0.209l-0.006,-0.208l-0.007,-0.208l-0.008,-0.208l-0.008,-0.207l-0.009,-0.208l-0.009,-0.207l-0.01,-0.207l-0.011,-0.207l-0.012,-0.207l-0.012,-0.207l-0.013,-0.206l-0.013,-0.206l-0.014,-0.206l-0.015,-0.206l-0.015,-0.206l-0.016,-0.205l-0.017,-0.205l-0.017,-0.206l-0.018,-0.204l-0.018,-0.205l-0.02,-0.205l-0.019,-0.204l-0.021,-0.204l-0.021,-0.204l-0.022,-0.204l-0.022,-0.203l-0.023,-0.203l-0.023,-0.204l-0.025,-0.203l-0.024,-0.202l-0.026,-0.203l-0.026,-0.202l-0.027,-0.202l-0.027,-0.202l-0.028,-0.202l-0.029,-0.201l-0.029,-0.202l-0.03,-0.201l-0.03,-0.201l-0.031,-0.2l-0.032,-0.201l-0.032,-0.2l-0.033,-0.2l-0.033,-0.2l-0.034,-0.2l-0.035,-0.199l-0.035,-0.199l-0.036,-0.199l-0.037,-0.199l-0.037,-0.198l-0.037,-0.199l-0.039,-0.198l-0.039,-0.198l-0.039,-0.197l-0.04,-0.198l-0.041,-0.197l-0.041,-0.197l-0.042,-0.197l-0.043,-0.197l-0.043,-0.196l-0.044,-0.196l-0.044,-0.196l-0.045,-0.196l-0.045,-0.195l-0.046,-0.195l-0.047,-0.195l-0.047,-0.195l-0.048,-0.195l-0.049,-0.194l-0.049,-0.194l-0.049,-0.194l-0.05,-0.193l-0.051,-0.194l-0.052,-0.193l-0.052,-0.193l-0.052,-0.193l-0.053,-0.192l-0.054,-0.192l-0.054,-0.192l-0.055,-0.192l-0.055,-0.191l-0.056,-0.191l-0.057,-0.191l-0.057,-0.191l-0.057,-0.19l-0.059,-0.191l-0.059,-0.19l-0.059,-0.189l-0.06,-0.19l-0.06,-0.189l-0.061,-0.189l-0.062,-0.189l-0.062,-0.188l-0.063,-0.188l-0.063,-0.188l-0.064,-0.188l-0.065,-0.188l-0.065,-0.187l-0.065,-0.187l-0.066,-0.186l-0.067,-0.187l-0.067,-0.186l-0.068,-0.186l-0.068,-0.185l-0.069,-0.186l-0.07,-0.185l-0.07,-0.185l-0.07,-0.184l-0.071,-0.184l-0.072,-0.184l-0.072,-0.184l-0.073,-0.184l-0.073,-0.183l-0.074,-0.183l-0.075,-0.183l-0.074,-0.182l-0.076,-0.182l-0.076,-0.182l-0.076,-0.181l-0.077,-0.182l-0.078,-0.181l-0.078,-0.18l-0.079,-0.181l-0.079,-0.18l-0.08,-0.18l-0.08,-0.179l-0.081,-0.18l-0.081,-0.179l-0.082,-0.178l-0.082,-0.179l-0.083,-0.178l-0.084,-0.178l-0.083,-0.177l-0.085,-0.177l-0.085,-0.177l-0.086,-0.177l-0.085,-0.176l-0.087,-0.176l-0.087,-0.176l-0.088,-0.176l-0.088,-0.175l-0.088,-0.175l-0.09,-0.175l-0.089,-0.174l-0.09,-0.174l-0.091,-0.174l-0.091,-0.173l-0.092,-0.173l-0.092,-0.173l-0.093,-0.172l-0.093,-0.172l-0.094,-0.172l-0.094,-0.171l-0.095,-0.172l-0.095,-0.171l-0.096,-0.17l-0.096,-0.171l-0.097,-0.169l-0.097,-0.17l-0.098,-0.169l-0.098,-0.169l-0.099,-0.169l-0.099,-0.168l-0.1,-0.169l-0.1,-0.167l-0.101,-0.167l-0.101,-0.167l-0.102,-0.167l-0.102,-0.167l-0.102,-0.166l-0.104,-0.166l-0.103,-0.165l-0.104,-0.165l-0.105,-0.165l-0.105,-0.164l-0.106,-0.164l-0.106,-0.164l-0.106,-0.163l-0.107,-0.164l-0.108,-0.162l-0.108,-0.163l-0.108,-0.162l-0.109,-0.161l-0.11,-0.162l-0.11,-0.161l-0.11,-0.16l-0.111,-0.161l-0.111,-0.16l-0.112,-0.159l-0.112,-0.16l-0.113,-0.159l-0.113,-0.158l-0.113,-0.158l-0.115,-0.158l-0.114,-0.158l-0.115,-0.157l-0.116,-0.157l-0.116,-0.156l-0.116,-0.156l-0.117,-0.156l-0.117,-0.155l-0.118,-0.155l-0.118,-0.155l-0.119,-0.154l-0.119,-0.154l-0.12,-0.154l-0.12,-0.153l-0.12,-0.153l-0.121,-0.152l-0.121,-0.152l-0.122,-0.152l-0.123,-0.152l-0.122,-0.15l-0.123,-0.151l-0.124,-0.15l-0.124,-0.15l-0.125,-0.15l-0.125,-0.149l-0.125,-0.148l-0.126,-0.149l-0.126,-0.148l-0.127,-0.147l-0.127,-0.148l-0.128,-0.146l-0.127,-0.147l-0.129,-0.146l-0.129,-0.145l-0.129,-0.146l-0.13,-0.145l-0.13,-0.144l-0.13,-0.144l-0.132,-0.144l-0.131,-0.143l-0.132,-0.143l-0.132,-0.142l-0.133,-0.142l-0.133,-0.142l-0.133,-0.141l-0.134,-0.141l-0.135,-0.141l-0.134,-0.14l-0.136,-0.14l-0.135,-0.139l-0.136,-0.139l-0.137,-0.138l-0.137,-0.138l-0.137,-0.138l-0.138,-0.137l-0.138,-0.137l-0.138,-0.137l-0.139,-0.136l-0.139,-0.135l-0.14,-0.136l-0.14,-0.134l-0.141,-0.135l-0.141,-0.134l-0.141,-0.133l-0.142,-0.133l-0.142,-0.133l-0.142,-0.132l-0.143,-0.132l-0.143,-0.131l-0.144,-0.132l-0.144,-0.13l-0.145,-0.13l-0.144,-0.13l-0.146,-0.129l-0.145,-0.129l-0.146,-0.128l-0.147,-0.129l-0.147,-0.127l-0.147,-0.127l-0.147,-0.127l-0.148,-0.126l-0.149,-0.126l-0.148,-0.125l-0.149,-0.125l-0.15,-0.125l-0.15,-0.124l-0.15,-0.124l-0.151,-0.123l-0.15,-0.122l-0.152,-0.123l-0.152,-0.122l-0.152,-0.121l-0.152,-0.121l-0.153,-0.12l-0.153,-0.12l-0.154,-0.12l-0.154,-0.119l-0.154,-0.119l-0.155,-0.118l-0.155,-0.118l-0.155,-0.117l-0.156,-0.117l-0.156,-0.116l-0.156,-0.116l-0.157,-0.116l-0.157,-0.115l-0.158,-0.114l-0.158,-0.115l-0.158,-0.113l-0.158,-0.113l-0.159,-0.113l-0.16,-0.112l-0.159,-0.112l-0.16,-0.111l-0.161,-0.111l-0.16,-0.111l-0.161,-0.109l-0.162,-0.11l-0.161,-0.109l-0.162,-0.108l-0.163,-0.108l-0.162,-0.108l-0.164,-0.107l-0.163,-0.106l-0.164,-0.106l-0.164,-0.106l-0.164,-0.105l-0.165,-0.105l-0.165,-0.104l-0.165,-0.103l-0.166,-0.104l-0.166,-0.102l-0.167,-0.102l-0.166,-0.102l-0.167,-0.101l-0.168,-0.101l-0.168,-0.1l-0.168,-0.1l-0.168,-0.099l-0.169,-0.099l-0.169,-0.098l-0.169,-0.098l-0.17,-0.097l-0.169,-0.097l-0.171,-0.096l-0.17,-0.096l-0.171,-0.095l-0.171,-0.095l-0.172,-0.094l-0.172,-0.094l-0.172,-0.093l-0.172,-0.093l-0.173,-0.092l-0.173,-0.092l-0.174,-0.091l-0.173,-0.091l-0.174,-0.09l-0.174,-0.089l-0.175,-0.09l-0.175,-0.088l-0.175,-0.088l-0.176,-0.088l-0.175,-0.087l-0.177,-0.087l-0.176,-0.086l-0.177,-0.085l-0.177,-0.085l-0.177,-0.085l-0.177,-0.083l-0.178,-0.084l-0.178,-0.083l-0.179,-0.082l-0.178,-0.082l-0.179,-0.081l-0.18,-0.081l-0.179,-0.08l-0.18,-0.08l-0.18,-0.079l-0.181,-0.079l-0.18,-0.078l-0.181,-0.078l-0.182,-0.077l-0.181,-0.076l-0.182,-0.076l-0.182,-0.076l-0.183,-0.075l-0.182,-0.074l-0.183,-0.074l-0.183,-0.073l-0.184,-0.073l-0.184,-0.072l-0.184,-0.072l-0.184,-0.071l-0.184,-0.07l-0.185,-0.07l-0.185,-0.07l-0.186,-0.068l-0.185,-0.069l-0.186,-0.068l-0.186,-0.067l-0.187,-0.067l-0.186,-0.066l-0.187,-0.065l-0.187,-0.065l-0.188,-0.065l-0.188,-0.064l-0.188,-0.063l-0.188,-0.063l-0.188,-0.062l-0.189,-0.062l-0.189,-0.061l-0.189,-0.06l-0.19,-0.06l-0.189,-0.059l-0.19,-0.059l-0.19,-0.059l-0.191,-0.057l-0.191,-0.057l-0.191,-0.057l-0.191,-0.056l-0.191,-0.055l-0.192,-0.055l-0.192,-0.054l-0.192,-0.054l-0.192,-0.053l-0.193,-0.053l-0.193,-0.051l-0.193,-0.052l-0.193,-0.051l-0.194,-0.05l-0.194,-0.049l-0.194,-0.049l-0.194,-0.049l-0.195,-0.048l-0.195,-0.047l-0.195,-0.047l-0.195,-0.046l-0.195,-0.045l-0.196,-0.045l-0.196,-0.044l-0.196,-0.044l-0.196,-0.043l-0.197,-0.043l-0.197,-0.042l-0.197,-0.041l-0.197,-0.041l-0.197,-0.04l-0.198,-0.039l-0.198,-0.039l-0.198,-0.039l-0.198,-0.037l-0.199,-0.037l-0.199,-0.037l-0.199,-0.036l-0.199,-0.035l-0.199,-0.035l-0.2,-0.034l-0.2,-0.033l-0.2,-0.033l-0.2,-0.032l-0.201,-0.032l-0.2,-0.031l-0.201,-0.031l-0.201,-0.029l-0.202,-0.029l-0.201,-0.029l-0.202,-0.028l-0.202,-0.027l-0.202,-0.027l-0.202,-0.026l-0.203,-0.026l-0.202,-0.024l-0.203,-0.025l-0.204,-0.023l-0.203,-0.023l-0.203,-0.022l-0.204,-0.022l-0.204,-0.021l-0.204,-0.021l-0.204,-0.019l-0.205,-0.02l-0.205,-0.018l-0.204,-0.018l-0.206,-0.017l-0.205,-0.017l-0.205,-0.016l-0.206,-0.015l-0.206,-0.015l-0.206,-0.014l-0.206,-0.013l-0.206,-0.013l-0.207,-0.012l-0.207,-0.012l-0.207,-0.011l-0.207,-0.01l-0.207,-0.009l-0.208,-0.009l-0.207,-0.008l-0.208,-0.008l-0.208,-0.007l-0.208,-0.006l-0.209,-0.006l-0.208,-0.005l-0.209,-0.004l-0.209,-0.004l-0.209,-0.003l-0.209,-0.002l-0.21,-0.002l-0.209,-0.001l-0.21,0l-0.21,0Z"/><text x="192.363px" y="110.596px" style="font-family:'Sniglet-ExtraBold', 'Sniglet', fantasy;font-weight:800;font-size:107.562px;">HISNA</text></svg>